<svg data-testid="geist-icon" height="22" stroke-linecap="round" stroke-linejoin="round" viewBox="0 0 16 16" width="22" style="width: 22px; height: 22px; color: currentcolor;"><path fill-rule="evenodd" clip-rule="evenodd" d="M5.82804 1.8717C3.30641 2.76542 1.5 5.17204 1.5 8.0001C1.5 11.5899 4.41015 14.5001 8 14.5001C10.8282 14.5001 13.2348 12.6936 14.1285 10.1718C13.3293 10.5427 12.4386 10.7499 11.5 10.7499C8.04822 10.7499 5.25 7.95172 5.25 4.49994C5.25 3.56144 5.45718 2.67078 5.82804 1.8717ZM0 8.0001C0 3.78268 3.26298 0.328073 7.40265 0.0220947L8.009 1.27881C7.22684 2.12601 6.75 3.25644 6.75 4.49994C6.75 7.12329 8.87665 9.24994 11.5 9.24994C12.7436 9.24994 13.8741 8.77304 14.7213 7.99079L15.978 8.59708C15.6722 12.7369 12.2175 16.0001 8 16.0001C3.58172 16.0001 0 12.4184 0 8.0001Z" fill="currentColor"></path></svg>
