<svg width="44" height="44" viewBox="0 0 641 641" fill="none" xmlns="http://www.w3.org/2000/svg">
<g opacity="0.24" filter="url(#filter0_f_1_311)">
<circle cx="320.008" cy="320.192" r="230.008" fill="#081939"/>
<circle cx="320.008" cy="320.192" r="230.008" fill="url(#paint0_radial_1_311)" fill-opacity="0.9"/>
<circle cx="320.008" cy="320.192" r="230.008" fill="url(#paint1_radial_1_311)" fill-opacity="0.85"/>
<circle cx="320.008" cy="320.192" r="230.008" fill="url(#paint2_radial_1_311)" fill-opacity="0.8"/>
<circle cx="320.008" cy="320.192" r="230.008" fill="url(#paint3_radial_1_311)" fill-opacity="0.88"/>
</g>
<g filter="url(#filter1_d_1_311)">
<path d="M516.581 281.79C516.581 390.474 428.475 478.58 319.79 478.58C211.106 478.58 123 390.474 123 281.79C123 173.106 211.106 85 319.79 85C428.475 85 516.581 173.106 516.581 281.79Z" fill="#081939"/>
<path d="M516.581 281.79C516.581 390.474 428.475 478.58 319.79 478.58C211.106 478.58 123 390.474 123 281.79C123 173.106 211.106 85 319.79 85C428.475 85 516.581 173.106 516.581 281.79Z" fill="url(#paint4_radial_1_311)" fill-opacity="0.9"/>
<path d="M516.581 281.79C516.581 390.474 428.475 478.58 319.79 478.58C211.106 478.58 123 390.474 123 281.79C123 173.106 211.106 85 319.79 85C428.475 85 516.581 173.106 516.581 281.79Z" fill="url(#paint5_radial_1_311)" fill-opacity="0.85"/>
<path d="M516.581 281.79C516.581 390.474 428.475 478.58 319.79 478.58C211.106 478.58 123 390.474 123 281.79C123 173.106 211.106 85 319.79 85C428.475 85 516.581 173.106 516.581 281.79Z" fill="url(#paint6_radial_1_311)" fill-opacity="0.8"/>
<path d="M516.581 281.79C516.581 390.474 428.475 478.58 319.79 478.58C211.106 478.58 123 390.474 123 281.79C123 173.106 211.106 85 319.79 85C428.475 85 516.581 173.106 516.581 281.79Z" fill="url(#paint7_radial_1_311)" fill-opacity="0.88"/>
</g>
<path d="M249.257 173.681C234.122 125.939 303.99 124.79 328.438 180.67C340.8 208.925 338.429 249.095 335.772 289.358C297.779 244.713 257.193 198.713 249.257 173.681Z" fill="url(#paint8_linear_1_311)"/>
<path d="M346.67 418.216C471.319 396.219 523.876 288.4 476.709 219.789C454.711 187.789 420.26 193.73 346.67 198.137C273.08 202.544 199.941 214.903 199.94 311.087C199.938 407.271 289.395 428.323 346.67 418.216Z" fill="url(#paint9_radial_1_311)"/>
<path d="M346.67 418.216C471.319 396.219 523.876 288.4 476.709 219.789C454.711 187.789 420.26 193.73 346.67 198.137C273.08 202.544 199.941 214.903 199.94 311.087C199.938 407.271 289.395 428.323 346.67 418.216Z" fill="url(#paint10_linear_1_311)"/>
<g style="mix-blend-mode:hard-light">
<path d="M236.035 305.264C236.033 240.929 255.916 180.919 265.921 152.507C270.037 140.817 285.442 137.489 295.713 144.426C313.201 154.971 348.433 180.589 383.998 205.149C420.954 230.67 474.247 258.885 449.789 342.553C431.257 405.946 340.835 403.077 340.835 403.077C340.835 403.077 236.039 401.333 236.035 305.264Z" fill="url(#paint11_linear_1_311)"/>
</g>
<path d="M438.268 400.142C489.502 355.313 507.29 261.604 472.939 203.384C438.587 145.164 389.647 131.607 348.926 133.515C308.206 135.424 225.496 160.886 222.002 252.288C218.509 343.691 266.046 382.46 315.767 426.142C334.979 443.021 387.033 444.971 438.268 400.142Z" fill="url(#paint12_linear_1_311)"/>
<path d="M260.265 372.386C263.195 374.118 265.811 375.803 267.767 377.555C293.27 400.393 332.366 397.969 373.767 387.142C417.436 375.722 488.268 355.142 499.768 300.641C506.283 269.766 482.641 228.292 450.931 194.641C422.044 163.987 386.803 139.825 354.879 136.079C346.88 135.141 337.119 135.052 326.645 136.415C266.002 148.926 233.266 182.832 228.266 251.833C223.266 320.833 228.91 334.153 260.265 372.386Z" fill="url(#paint13_linear_1_311)" fill-opacity="0.78"/>
<g style="mix-blend-mode:color-dodge">
<path d="M185.766 299.641C176.266 233.641 204.256 162.489 268.268 162.489C318.804 162.489 347.362 201.123 386.186 226.501C433.864 257.666 470.413 279.159 470.413 310.728C470.413 368.002 385.021 398.42 303.573 365.816C244.145 342.026 195.266 365.642 185.766 299.641Z" fill="url(#paint14_radial_1_311)" fill-opacity="0.8"/>
</g>
<path d="M185.766 299.641C176.266 233.641 204.256 162.489 268.268 162.489C318.804 162.489 347.362 201.123 386.186 226.501C433.864 257.666 470.413 279.159 470.413 310.728C470.413 368.002 385.021 398.42 303.573 365.816C244.145 342.026 195.266 365.642 185.766 299.641Z" fill="url(#paint15_linear_1_311)"/>
<path d="M340.668 396.671C361.628 454.313 414.613 436.254 406.457 390.847C402.577 369.248 370.242 329.86 335.773 289.355C333.176 328.721 330.306 368.176 340.668 396.671Z" fill="url(#paint16_radial_1_311)"/>
<path d="M340.668 396.671C361.628 454.313 414.613 436.254 406.457 390.847C402.577 369.248 370.242 329.86 335.773 289.355C333.176 328.721 330.306 368.176 340.668 396.671Z" fill="url(#paint17_linear_1_311)"/>
<g filter="url(#filter2_df_1_311)">
<path d="M369.339 278.064C369.339 305.431 347.154 327.616 319.787 327.616C292.421 327.616 270.236 305.431 270.236 278.064C270.236 267.542 273.516 257.785 279.109 249.761C284.766 241.645 288.606 240.591 282.14 233.103C273.74 223.375 266.356 211.311 307.521 204.809C345.92 198.741 365.234 196.467 354.879 231.901C352.515 239.991 355.128 242.327 360.048 249.171C365.895 257.305 369.339 267.282 369.339 278.064Z" fill="white"/>
</g>
<defs>
<filter id="filter0_f_1_311" x="0" y="0.183624" width="640.016" height="640.016" filterUnits="userSpaceOnUse" color-interpolation-filters="sRGB">
<feFlood flood-opacity="0" result="BackgroundImageFix"/>
<feBlend mode="normal" in="SourceGraphic" in2="BackgroundImageFix" result="shape"/>
<feGaussianBlur stdDeviation="45" result="effect1_foregroundBlur_1_311"/>
</filter>
<filter id="filter1_d_1_311" x="68.0002" y="49" width="503.58" height="503.58" filterUnits="userSpaceOnUse" color-interpolation-filters="sRGB">
<feFlood flood-opacity="0" result="BackgroundImageFix"/>
<feColorMatrix in="SourceAlpha" type="matrix" values="0 0 0 0 0 0 0 0 0 0 0 0 0 0 0 0 0 0 127 0" result="hardAlpha"/>
<feOffset dy="19"/>
<feGaussianBlur stdDeviation="27.5"/>
<feColorMatrix type="matrix" values="0 0 0 0 0.121569 0 0 0 0 0.145098 0 0 0 0 0.258824 0 0 0 0.45 0"/>
<feBlend mode="normal" in2="BackgroundImageFix" result="effect1_dropShadow_1_311"/>
<feBlend mode="normal" in="SourceGraphic" in2="effect1_dropShadow_1_311" result="shape"/>
</filter>
<filter id="filter2_df_1_311" x="210.236" y="141.259" width="239.103" height="266.357" filterUnits="userSpaceOnUse" color-interpolation-filters="sRGB">
<feFlood flood-opacity="0" result="BackgroundImageFix"/>
<feColorMatrix in="SourceAlpha" type="matrix" values="0 0 0 0 0 0 0 0 0 0 0 0 0 0 0 0 0 0 127 0" result="hardAlpha"/>
<feOffset dx="10" dy="10"/>
<feGaussianBlur stdDeviation="35"/>
<feColorMatrix type="matrix" values="0 0 0 0 1 0 0 0 0 1 0 0 0 0 1 0 0 0 1 0"/>
<feBlend mode="normal" in2="BackgroundImageFix" result="effect1_dropShadow_1_311"/>
<feBlend mode="normal" in="SourceGraphic" in2="effect1_dropShadow_1_311" result="shape"/>
<feGaussianBlur stdDeviation="12.5" result="effect2_foregroundBlur_1_311"/>
</filter>
<radialGradient id="paint0_radial_1_311" cx="0" cy="0" r="1" gradientUnits="userSpaceOnUse" gradientTransform="translate(245.154 165.72) rotate(63.1327) scale(173.164 205.419)">
<stop stop-color="#7D7194"/>
<stop offset="1" stop-color="#7D7194" stop-opacity="0"/>
</radialGradient>
<radialGradient id="paint1_radial_1_311" cx="0" cy="0" r="1" gradientUnits="userSpaceOnUse" gradientTransform="translate(537.769 246.019) rotate(161.19) scale(230.046)">
<stop stop-color="#4A8F9F"/>
<stop offset="1" stop-color="#4A8F9F" stop-opacity="0"/>
</radialGradient>
<radialGradient id="paint2_radial_1_311" cx="0" cy="0" r="1" gradientUnits="userSpaceOnUse" gradientTransform="translate(396.225 537.953) rotate(-108.939) scale(146.767)">
<stop stop-color="#5C4763"/>
<stop offset="1" stop-color="#5C4763" stop-opacity="0"/>
</radialGradient>
<radialGradient id="paint3_radial_1_311" cx="0" cy="0" r="1" gradientUnits="userSpaceOnUse" gradientTransform="translate(69.5852 403.214) rotate(-18.3418) scale(263.826 366.726)">
<stop stop-color="#3D3041"/>
<stop offset="1" stop-color="#3D3041" stop-opacity="0"/>
</radialGradient>
<radialGradient id="paint4_radial_1_311" cx="0" cy="0" r="1" gradientUnits="userSpaceOnUse" gradientTransform="translate(255.747 149.627) rotate(63.1327) scale(148.156 175.752)">
<stop stop-color="#7D7194"/>
<stop offset="1" stop-color="#7D7194" stop-opacity="0"/>
</radialGradient>
<radialGradient id="paint5_radial_1_311" cx="0" cy="0" r="1" gradientUnits="userSpaceOnUse" gradientTransform="translate(506.102 218.329) rotate(161.19) scale(196.823)">
<stop stop-color="#4A8F9F"/>
<stop offset="1" stop-color="#4A8F9F" stop-opacity="0"/>
</radialGradient>
<radialGradient id="paint6_radial_1_311" cx="0" cy="0" r="1" gradientUnits="userSpaceOnUse" gradientTransform="translate(385 468.102) rotate(-108.939) scale(125.571)">
<stop stop-color="#5C4763"/>
<stop offset="1" stop-color="#5C4763" stop-opacity="0"/>
</radialGradient>
<radialGradient id="paint7_radial_1_311" cx="0" cy="0" r="1" gradientUnits="userSpaceOnUse" gradientTransform="translate(105.534 352.822) rotate(-18.3418) scale(225.724 313.763)">
<stop stop-color="#3D3041"/>
<stop offset="1" stop-color="#3D3041" stop-opacity="0"/>
</radialGradient>
<linearGradient id="paint8_linear_1_311" x1="247.133" y1="171.354" x2="331.52" y2="157.38" gradientUnits="userSpaceOnUse">
<stop stop-color="#E375A0"/>
<stop offset="1" stop-color="#E375A0" stop-opacity="0"/>
</linearGradient>
<radialGradient id="paint9_radial_1_311" cx="0" cy="0" r="1" gradientUnits="userSpaceOnUse" gradientTransform="translate(270.969 228.412) rotate(69.3339) scale(141.876 170.888)">
<stop stop-color="#B850C1"/>
<stop offset="1" stop-color="#DCADE0" stop-opacity="0"/>
</radialGradient>
<linearGradient id="paint10_linear_1_311" x1="356.265" y1="194.406" x2="354.947" y2="238.564" gradientUnits="userSpaceOnUse">
<stop stop-color="#B850C1"/>
<stop offset="1" stop-color="#DCADE0" stop-opacity="0"/>
</linearGradient>
<linearGradient id="paint11_linear_1_311" x1="258.16" y1="335.54" x2="367.618" y2="293.62" gradientUnits="userSpaceOnUse">
<stop stop-color="#7EA1E4"/>
<stop offset="1" stop-color="#70CBFF" stop-opacity="0"/>
</linearGradient>
<linearGradient id="paint12_linear_1_311" x1="490.092" y1="270.332" x2="356.267" y2="330.642" gradientUnits="userSpaceOnUse">
<stop stop-color="#5BAEEC"/>
<stop offset="1" stop-color="#5BAEEC" stop-opacity="0"/>
</linearGradient>
<linearGradient id="paint13_linear_1_311" x1="269.267" y1="256.141" x2="446.768" y2="289.141" gradientUnits="userSpaceOnUse">
<stop stop-color="#85FAFE" stop-opacity="0"/>
<stop offset="1" stop-color="#85FAFE"/>
</linearGradient>
<radialGradient id="paint14_radial_1_311" cx="0" cy="0" r="1" gradientUnits="userSpaceOnUse" gradientTransform="translate(260.041 196.383) rotate(84.3771) scale(129.883 145.065)">
<stop stop-color="#65ECE8"/>
<stop offset="1" stop-color="#8BECE9" stop-opacity="0"/>
</radialGradient>
<linearGradient id="paint15_linear_1_311" x1="416.9" y1="344.015" x2="455.126" y2="270.858" gradientUnits="userSpaceOnUse">
<stop stop-color="#7BE7F6" stop-opacity="0"/>
<stop offset="0.75" stop-color="#7BE7F6"/>
</linearGradient>
<radialGradient id="paint16_radial_1_311" cx="0" cy="0" r="1" gradientUnits="userSpaceOnUse" gradientTransform="translate(348.986 419.38) rotate(-68.2079) scale(81.5674 104.723)">
<stop stop-color="#E375A0" stop-opacity="0"/>
<stop offset="1" stop-color="#FF91C6"/>
</radialGradient>
<linearGradient id="paint17_linear_1_311" x1="340.835" y1="306.429" x2="346.658" y2="346.02" gradientUnits="userSpaceOnUse">
<stop stop-color="white"/>
<stop offset="1" stop-color="white" stop-opacity="0"/>
</linearGradient>
</defs>
</svg>