<svg enable-background="new 0 0 512 512" viewBox="0 0 512 512" xmlns="http://www.w3.org/2000/svg"><path d="m146.163 157.793c39.665-39.665 82.726-51.891 126.903-55.662 73.53-6.268 107.575 14.745 122.636 45.293 15.069 30.547-14.003 73.918-14.003 73.918" fill="#597b91"/><path d="m171.446 350.718c25.698 20.717 33.908 60.259 12.522 60.259-21.387 0-51.409-49.552-60.944-76.12m209.64-65.82c-38.773-18.27-84.087-3.612-101.213 32.743-17.134 36.348.41 80.632 39.182 98.896 38.773 18.27 84.086 3.612 101.213-32.743 17.134-36.347-.41-80.625-39.182-98.896m28.22-26.887s29.072-48.149 14.003-82.072c-15.061-33.922-49.106-57.252-122.636-50.294-44.177 4.188-87.238 17.76-126.903 61.807" fill="#00b89c"/><path d="m485.104 212.418c-3.598-3.814-9.154-5.038-13.982-3.016l-33.332 13.953s0-.001 0-.002l-9.563 4.003-.001-.002c-20.524 8.593-19.962-3.936-32.642-18.918-.005-.006-.01-.01-.015-.016-29.221-40.718-88.972-68.624-157.94-68.624-65.381 0-122.475 25.08-153.13 62.379-24.158 23.541-50.058 39.969-66.339 46.482-7.368 2.951-12.16 10.111-12.16 18.041 0 6.909 3.979 13.198 10.218 16.156 15.469 7.331 45.437 23.147 68.399 45.171 30.683 37.221 87.714 62.239 153.013 62.239 70.424 0 131.241-29.096 159.752-71.221 9.741-12.507 11.143-22.554 25.359-18.633l19.776 8.282c0-.001 0-.003.001-.004l28.604 11.974c4.828 2.022 10.384.791 13.982-3.016 12.953-13.737 20.89-32.245 20.89-52.618 0-20.365-7.937-38.873-20.89-52.61z" fill="#15e5c2"/><path d="m485.103 212.417c-3.591-3.813-9.154-5.037-13.982-3.015l-15.615 6.534s13.759 24.935 13.759 52.59c0 27.654-9.089 47.551-9.089 47.551l10.945 4.585c4.829 2.022 10.391.791 13.982-3.016 12.952-13.737 20.897-32.245 20.897-52.618 0-20.365-7.945-38.873-20.897-52.611" fill="#597b91"/><path d="m101.57 221.339c7.462 0 13.521 6.045 13.521 13.537v16.615c0 7.476-6.059 13.536-13.521 13.536-7.477 0-13.536-6.059-13.536-13.536v-16.615c-.001-7.491 6.059-13.537 13.536-13.537" fill="#2b3b47"/><path d="m307.854 176.42c5.419 3.865 1.151 8.6-5.217 6.664-14.745-4.491-38.369-8.153-65.002-8.153s-50.257 3.662-65.002 8.153c-6.369 1.936-10.636-2.799-5.217-6.664 13.96-9.945 40.176-17.119 70.219-17.119 30.036 0 56.259 7.174 70.219 17.119" fill="#aeffef"/><path d="m168.249 317.886 39.118 16.378c2.986 1.246 6.412.49 8.628-1.863 7.995-8.47 12.895-19.89 12.895-32.454 0-12.572-4.9-23.985-12.895-32.461-2.216-2.346-5.642-3.109-8.628-1.857l-39.118 16.371c-2.864 1.202-4.728 4.001-4.728 7.11v21.667c0 3.108 1.864 5.907 4.728 7.109" fill="#00b89c"/><path d="m49.078 268.581c0-1.478-1.139-2.672-2.586-2.796v-.028h-40.492v5.648h40.492v-.027c1.446-.124 2.586-1.318 2.586-2.797z" fill="#597b91"/></svg>