<svg fill="none" height="32" viewBox="0 0 32 32" width="32" xmlns="http://www.w3.org/2000/svg"><path d="m15.35 2.1425c.32-.19.71-.19 1.02 0l10.92 6.64c.26.16.42.45.42.75l-11.85 7.9675-11.86-7.86757v-.09993c0-.3.16-.59.42-.74z" fill="#f3c07b"/><path d="m15.856 16.2463 11.36-6.89997c.0498-.0297.1067-.04566.1647-.04626.058-.00061.1151.01418.1655.04284.0504.02867.0923.07016.1214.1203.0292.05014.0445.10711.0445.1651v12.33999c.0001.2972-.0762.5894-.2216.8486-.1453.2592-.3549.4765-.6085.6314l-10.6399 6.46c-.0271.0149-.0566.0251-.0871.0301-.0269.008-.0549.0117-.083.011-.1135.0318-.2322.0409-.3493.0267-.1171-.0143-.2301-.0516-.3327-.1097h.006l-2.396-10.8664z" fill="#ffce7c"/><path d="m15.86 29.6224v-13.37l-11.35-6.89997c-.23-.14-.51.02-.51.28v12.33997c0 .61.32 1.17.83 1.48l10.57 6.42c.2.13.46-.02.46-.25z" fill="#e19747"/><path d="m14.5 26.7824v-1.96c0-.23-.12-.44-.31-.56l-2.8-1.69c-.19-.11-.43.02-.43.24v1.96c0 .23.12.44.31.56l2.8 1.69c.19.11.43-.02.43-.24z" fill="#d3d3d3"/><path d="m11.76 16.5525v-2.79-1.7699l-3.27999-.2201v3.16c0 .1.05.2.14.26l2.67999 1.63c.2.11.46-.03.46-.27z" fill="#8c5543"/><path d="m20.34 4.5625-11.85999 7.21 3.27999 2 11.86-7.2z" fill="#a56953"/></svg>