<svg clip-rule="evenodd" fill-rule="evenodd" height="2048" image-rendering="optimizeQuality" shape-rendering="geometricPrecision" text-rendering="geometricPrecision" viewBox="0 0 2048 2048" width="2048" xmlns="http://www.w3.org/2000/svg"><path d="m0 0h2048v2048h-2048z" fill="none"/><path d="m255.999 255.999h1536v1536h-1536z" fill="none"/><path d="m1303.19 263.999 328.759 329.158h-269.982c-32.328 0-58.7764-26.4484-58.7764-58.7764v-270.382z" fill="#ef9a9a"/><path d="m454.851 263.999h848.395v268.747c0 33.228 27.1843 60.4111 60.4111 60.4111h268.344v814.843c0 22.0004-17.9988 39.9992-39.9992 39.9992h-1137.15c-22.0004 0-39.9992-17.9988-39.9992-39.9992v-1104c0-22.0004 17.9988-39.9992 39.9992-39.9992z" fill="#ffcdd2"/><g fill="#d32f2f"><path d="m671.999 763.342h736.001v64.002h-736.001z" fill-rule="nonzero"/><path d="m671.999 987.337h736.001v64.003h-736.001z" fill-rule="nonzero"/><path d="m337.396 1226.19h1373.21c22.3748 0 42.7347 9.23387 57.5103 24.1075 14.7378 14.8358 23.8866 35.2382 23.8866 57.6189v394.353c0 22.3807-9.15001 42.7819-23.8866 57.6178-14.7768 14.8736-35.1366 24.1087-57.5103 24.1087h-1373.21c-22.3725 0-42.7347-9.23505-57.5115-24.1087-14.7366-14.8335-23.8855-35.2347-23.8855-57.6178v-394.353c0-22.3819 9.14883-42.7831 23.8855-57.6189 14.7744-14.8736 35.1366-24.1075 57.5115-24.1075z"/></g><path d="m533.791 1684.05v-357.917h115.916c43.917 0 72.5835 1.83307 85.917 5.41654 20.5004 5.33386 37.7504 17.0008 51.5835 35.0008s20.7496 41.25 20.7496 69.6662c0 22.0004-3.99922 40.5-12 55.4162-7.99961 15-18.0827 26.7508-30.4158 35.3339-12.2504 8.5004-24.75 14.1662-37.4174 16.9169-17.25 3.41575-42.2492 5.16615-75.0001 5.16615h-47.0835v135h-72.2493zm72.2493-297.333v101.5h39.5008c28.5 0 47.5831-1.83425 57.1666-5.58426 9.58347-3.75 17.0835-9.58347 22.5827-17.5831 5.41654-7.99961 8.16733-17.25 8.16733-27.8327 0-13.0004-3.83386-23.7508-11.5004-32.25-7.58268-8.41654-17.3327-13.7504-28.9996-15.8339-8.66694-1.66654-26.0008-2.41654-52.0004-2.41654h-34.917zm261.917 297.333v-357.917h70.3335l146.501 239v-239h67.1658v357.917h-72.5823l-144.251-233.417v233.417zm526.917-131.583v-60.3331h155.75v142.583c-15.1665 14.6669-37.0831 27.5835-65.8335 38.7496-28.7504 11.0835-57.8327 16.6677-87.2505 16.6677-37.4162 0-70.0831-7.83426-97.9158-23.5004-27.8339-15.75-48.75-38.1674-62.7508-67.4162-13.9996-29.25-21-61.0004-21-95.3339 0-37.2496 7.83426-70.4162 23.4177-99.417 15.6662-28.9158 38.4992-51.1666 68.6658-66.5835 22.9169-11.9162 51.5008-17.8323 85.6666-17.8323 44.4166 0 79.167 9.33308 104.084 27.9166 25.0004 18.6662 41.0835 44.4166 48.2504 77.3327l-71.7508 13.4173c-5.08229-17.5843-14.5831-31.5-28.5-41.667-13.9158-10.1669-31.2496-15.2504-52.0831-15.2504-31.5827 0-56.6658 10.0004-75.3331 30-18.6662 20.0835-27.9166 49.7504-27.9166 89.1674 0 42.4158 9.41694 74.3327 28.3335 95.5831 18.8327 21.2492 43.5827 31.8331 74.1662 31.8331 15.1665 0 30.3343-3 45.5835-8.91733 15.1665-5.91615 28.2496-13.1658 39.1666-21.5823v-45.417h-82.7493z" fill="#fff" fill-rule="nonzero"/></svg>
