<svg xmlns="http://www.w3.org/2000/svg" xml:space="preserve" width="200" height="200" viewBox="0 0 306.481 306.481"><path fill="#fee050" d="M306.481 153.24C306.481 68.606 237.874 0 153.24 0 68.613 0 0 68.606 0 153.24c0 84.633 68.613 153.24 153.24 153.24 84.634.001 153.241-68.607 153.241-153.24z"/><path fill="#fb7598" d="m243.551 220.434-18.663-22.055c-9.136 14.472-22.53 25.977-38.427 32.766L205 253.054c9.009 10.645 24.94 11.973 35.587 2.966 10.642-9.01 11.971-24.941 2.964-35.586z"/><path fill="#ba5771" d="m223.478 231.608-13.521-15.497a85.205 85.205 0 0 1-4.839 4.054l13.604 15.593a3.146 3.146 0 0 0 2.378 1.081c.735 0 1.475-.256 2.073-.778a3.153 3.153 0 0 0 .305-4.453z"/><path fill="#af8400" d="M153.24 244.238c-37.657 0-71.884-23.667-85.17-58.894a6.313 6.313 0 0 1 11.813-4.455c11.443 30.339 40.923 50.724 73.357 50.724 32.435 0 61.915-20.385 73.359-50.724a6.313 6.313 0 0 1 11.812 4.455c-13.285 35.227-47.514 58.894-85.171 58.894z"/><path fill="#1e252b" d="M79.595 145.729a6.314 6.314 0 0 1-6.313-6.313c0-9.552-7.77-17.322-17.322-17.322s-17.322 7.77-17.322 17.322a6.313 6.313 0 0 1-12.625 0c0-16.513 13.434-29.947 29.947-29.947 16.514 0 29.947 13.434 29.947 29.947a6.313 6.313 0 0 1-6.312 6.313zM274.156 145.729a6.313 6.313 0 0 1-6.313-6.313c0-9.552-7.771-17.322-17.322-17.322-9.553 0-17.322 7.77-17.322 17.322a6.313 6.313 0 0 1-12.626 0c0-16.513 13.434-29.947 29.947-29.947s29.947 13.434 29.947 29.947a6.312 6.312 0 0 1-6.311 6.313z"/></svg>
