<svg fill="none" height="32" viewBox="0 0 32 32" width="32" xmlns="http://www.w3.org/2000/svg" xmlns:xlink="http://www.w3.org/1999/xlink"><filter id="a" color-interpolation-filters="sRGB" filterUnits="userSpaceOnUse" height="19.9977" width="27.9156" x="2.32812" y="10.8812"><feFlood flood-opacity="0" result="BackgroundImageFix"/><feBlend in="SourceGraphic" in2="BackgroundImageFix" mode="normal" result="shape"/><feColorMatrix in="SourceAlpha" result="hardAlpha" type="matrix" values="0 0 0 0 0 0 0 0 0 0 0 0 0 0 0 0 0 0 127 0"/><feOffset dx=".15" dy="-.15"/><feGaussianBlur stdDeviation=".25"/><feComposite in2="hardAlpha" k2="-1" k3="1" operator="arithmetic"/><feColorMatrix type="matrix" values="0 0 0 0 0.305882 0 0 0 0 0.541176 0 0 0 0 0.780392 0 0 0 1 0"/><feBlend in2="shape" mode="normal" result="effect1_innerShadow_18_20736"/></filter><filter id="b" color-interpolation-filters="sRGB" filterUnits="userSpaceOnUse" height="19.9477" width="27.9656" x="2.22812" y="9.9625"><feFlood flood-opacity="0" result="BackgroundImageFix"/><feBlend in="SourceGraphic" in2="BackgroundImageFix" mode="normal" result="shape"/><feColorMatrix in="SourceAlpha" result="hardAlpha" type="matrix" values="0 0 0 0 0 0 0 0 0 0 0 0 0 0 0 0 0 0 127 0"/><feOffset dx="-.1"/><feGaussianBlur stdDeviation=".15"/><feComposite in2="hardAlpha" k2="-1" k3="1" operator="arithmetic"/><feColorMatrix type="matrix" values="0 0 0 0 0.45098 0 0 0 0 0.941176 0 0 0 0 1 0 0 0 1 0"/><feBlend in2="shape" mode="normal" result="effect1_innerShadow_18_20736"/><feColorMatrix in="SourceAlpha" result="hardAlpha" type="matrix" values="0 0 0 0 0 0 0 0 0 0 0 0 0 0 0 0 0 0 127 0"/><feOffset dx=".1" dy="-.1"/><feGaussianBlur stdDeviation=".15"/><feComposite in2="hardAlpha" k2="-1" k3="1" operator="arithmetic"/><feColorMatrix type="matrix" values="0 0 0 0 0.286275 0 0 0 0 0.666667 0 0 0 0 0.901961 0 0 0 1 0"/><feBlend in2="effect1_innerShadow_18_20736" mode="normal" result="effect2_innerShadow_18_20736"/></filter><filter id="c" color-interpolation-filters="sRGB" filterUnits="userSpaceOnUse" height="19.0547" width="26.9375" x="2.53125" y="8.59375"><feFlood flood-opacity="0" result="BackgroundImageFix"/><feBlend in="SourceGraphic" in2="BackgroundImageFix" mode="normal" result="shape"/><feGaussianBlur result="effect1_foregroundBlur_18_20736" stdDeviation=".25"/></filter><filter id="d" color-interpolation-filters="sRGB" filterUnits="userSpaceOnUse" height="18.6391" width="13.0688" x="3.21094" y="8.46094"><feFlood flood-opacity="0" result="BackgroundImageFix"/><feBlend in="SourceGraphic" in2="BackgroundImageFix" mode="normal" result="shape"/><feColorMatrix in="SourceAlpha" result="hardAlpha" type="matrix" values="0 0 0 0 0 0 0 0 0 0 0 0 0 0 0 0 0 0 127 0"/><feOffset dx=".1" dy=".1"/><feGaussianBlur stdDeviation=".15"/><feComposite in2="hardAlpha" k2="-1" k3="1" operator="arithmetic"/><feColorMatrix type="matrix" values="0 0 0 0 0.694118 0 0 0 0 0.705882 0 0 0 0 0.733333 0 0 0 1 0"/><feBlend in2="shape" mode="normal" result="effect1_innerShadow_18_20736"/></filter><filter id="e" color-interpolation-filters="sRGB" filterUnits="userSpaceOnUse" height="18.6391" width="13.0688" x="16.1797" y="8.46094"><feFlood flood-opacity="0" result="BackgroundImageFix"/><feBlend in="SourceGraphic" in2="BackgroundImageFix" mode="normal" result="shape"/><feColorMatrix in="SourceAlpha" result="hardAlpha" type="matrix" values="0 0 0 0 0 0 0 0 0 0 0 0 0 0 0 0 0 0 127 0"/><feOffset dx=".1" dy=".1"/><feGaussianBlur stdDeviation=".15"/><feComposite in2="hardAlpha" k2="-1" k3="1" operator="arithmetic"/><feColorMatrix type="matrix" values="0 0 0 0 0.831373 0 0 0 0 0.835294 0 0 0 0 0.854902 0 0 0 1 0"/><feBlend in2="shape" mode="normal" result="effect1_innerShadow_18_20736"/></filter><filter id="f" color-interpolation-filters="sRGB" filterUnits="userSpaceOnUse" height="19.0109" width="11.475" x="4.80469" y="8.03125"><feFlood flood-opacity="0" result="BackgroundImageFix"/><feBlend in="SourceGraphic" in2="BackgroundImageFix" mode="normal" result="shape"/><feColorMatrix in="SourceAlpha" result="hardAlpha" type="matrix" values="0 0 0 0 0 0 0 0 0 0 0 0 0 0 0 0 0 0 127 0"/><feOffset dy=".05"/><feGaussianBlur stdDeviation=".15"/><feComposite in2="hardAlpha" k2="-1" k3="1" operator="arithmetic"/><feColorMatrix type="matrix" values="0 0 0 0 0.827451 0 0 0 0 0.819608 0 0 0 0 0.854902 0 0 0 1 0"/><feBlend in2="shape" mode="normal" result="effect1_innerShadow_18_20736"/><feColorMatrix in="SourceAlpha" result="hardAlpha" type="matrix" values="0 0 0 0 0 0 0 0 0 0 0 0 0 0 0 0 0 0 127 0"/><feOffset dx=".1"/><feGaussianBlur stdDeviation=".15"/><feComposite in2="hardAlpha" k2="-1" k3="1" operator="arithmetic"/><feColorMatrix type="matrix" values="0 0 0 0 0.980392 0 0 0 0 0.976471 0 0 0 0 1 0 0 0 1 0"/><feBlend in2="effect1_innerShadow_18_20736" mode="normal" result="effect2_innerShadow_18_20736"/></filter><filter id="g" color-interpolation-filters="sRGB" filterUnits="userSpaceOnUse" height="19.0109" width="11.475" x="16.0797" y="8.03125"><feFlood flood-opacity="0" result="BackgroundImageFix"/><feBlend in="SourceGraphic" in2="BackgroundImageFix" mode="normal" result="shape"/><feColorMatrix in="SourceAlpha" result="hardAlpha" type="matrix" values="0 0 0 0 0 0 0 0 0 0 0 0 0 0 0 0 0 0 127 0"/><feOffset dx="-.1"/><feGaussianBlur stdDeviation=".15"/><feComposite in2="hardAlpha" k2="-1" k3="1" operator="arithmetic"/><feColorMatrix type="matrix" values="0 0 0 0 0.980392 0 0 0 0 0.976471 0 0 0 0 1 0 0 0 1 0"/><feBlend in2="shape" mode="normal" result="effect1_innerShadow_18_20736"/><feColorMatrix in="SourceAlpha" result="hardAlpha" type="matrix" values="0 0 0 0 0 0 0 0 0 0 0 0 0 0 0 0 0 0 127 0"/><feOffset dy=".05"/><feGaussianBlur stdDeviation=".15"/><feComposite in2="hardAlpha" k2="-1" k3="1" operator="arithmetic"/><feColorMatrix type="matrix" values="0 0 0 0 0.827451 0 0 0 0 0.819608 0 0 0 0 0.854902 0 0 0 1 0"/><feBlend in2="effect1_innerShadow_18_20736" mode="normal" result="effect2_innerShadow_18_20736"/></filter><linearGradient id="h" gradientUnits="userSpaceOnUse" x1="16.2109" x2="16.2109" y1="14.4375" y2="29.9102"><stop offset="0" stop-color="#5dd8fb"/><stop offset="1" stop-color="#41aef2"/></linearGradient><radialGradient id="i" cx="0" cy="0" gradientTransform="matrix(2.0000027 -.99999912 1.40312121 2.80624868 15.375 28.5313)" gradientUnits="userSpaceOnUse" r="1"><stop offset=".231937" stop-color="#306ab3"/><stop offset="1" stop-color="#1a4ca8"/></radialGradient><linearGradient id="j" gradientUnits="userSpaceOnUse" x1="16.2109" x2="16.2109" y1="26.7813" y2="27.5313"><stop offset="0" stop-color="#1748a6"/><stop offset="1" stop-color="#1748a6" stop-opacity="0"/></linearGradient><linearGradient id="k" gradientUnits="userSpaceOnUse" x1="12.5156" x2="5.26563" y1="28.6563" y2="21.9375"><stop offset=".749863" stop-color="#b3a9cf"/><stop offset=".931655" stop-color="#b6bac5"/></linearGradient><linearGradient id="l" gradientUnits="userSpaceOnUse" x1="19.8437" x2="27.0937" y1="28.6563" y2="21.9375"><stop offset=".71707" stop-color="#bbb3d9"/><stop offset=".912508" stop-color="#dcdde8"/></linearGradient><linearGradient id="m" gradientUnits="userSpaceOnUse" x1="27.9764" x2="27.9764" y1="8.88643" y2="13.3274"><stop offset="0" stop-color="#d8dae2"/><stop offset="1" stop-color="#d8dae2" stop-opacity="0"/></linearGradient><linearGradient id="n" gradientUnits="userSpaceOnUse" x1="16.1797" x2="17.7969" y1="27" y2="25.0938"><stop offset="0" stop-color="#a699c9"/><stop offset="1" stop-color="#a699c9" stop-opacity="0"/></linearGradient><linearGradient id="o"><stop offset="0" stop-color="#f3f1fa"/><stop offset="1" stop-color="#f0ebf9"/></linearGradient><linearGradient id="p" gradientUnits="userSpaceOnUse" x1="4.80469" x2="15.3281" xlink:href="#o" y1="17.5117" y2="17.5117"/><linearGradient id="q"><stop offset="0" stop-color="#d5cce8"/><stop offset="1" stop-color="#f2ebff" stop-opacity="0"/></linearGradient><linearGradient id="r" gradientUnits="userSpaceOnUse" x1="16.1797" x2="13.4531" xlink:href="#q" y1="25.6875" y2="25.6875"/><linearGradient id="s" gradientUnits="userSpaceOnUse" x1="16.2344" x2="16.0156" y1="25.9063" y2="25.9063"><stop offset=".178572" stop-color="#bfb3d1"/><stop offset="1" stop-color="#bfb3d1" stop-opacity="0"/></linearGradient><linearGradient id="t" gradientUnits="userSpaceOnUse" x1="16.1797" x2="26.7031" xlink:href="#o" y1="17.5117" y2="17.5117"/><linearGradient id="u" gradientUnits="userSpaceOnUse" x1="16.1797" x2="18.9844" xlink:href="#q" y1="25.6875" y2="25.6875"/><linearGradient id="v" gradientUnits="userSpaceOnUse" x1="16.1523" x2="16.3594" y1="25.9062" y2="25.9062"><stop offset="0" stop-color="#bfb3d1"/><stop offset="1" stop-color="#bfb3d1" stop-opacity="0"/></linearGradient><g filter="url(#a)"><path d="m3.57812 11.0312c-.69036 0-1.25.5597-1.25 1.25v16.3907c0 .6903.55964 1.25 1.25 1.25h11.00438c.3184.5709.9283.957 1.6284.957s1.3101-.3861 1.6285-.957h11.0044c.6903 0 1.25-.5597 1.25-1.25v-16.3907c0-.6903-.5597-1.25-1.25-1.25z" fill="#3e6aca"/></g><g filter="url(#b)"><path d="m3.57812 10.0625c-.69036 0-1.25.5596-1.25 1.25v16.3906c0 .6904.55964 1.25 1.25 1.25h11.00438c.3184.5709.9283.9571 1.6284.9571s1.3101-.3862 1.6285-.9571h11.0044c.6903 0 1.25-.5596 1.25-1.25v-16.3906c0-.6904-.5597-1.25-1.25-1.25z" fill="url(#h)"/></g><g filter="url(#c)"><path d="m4.81036 9.09375-1.56561 1.94165c-.1383.1715-.2135.3833-.2135.6015v14.2942c0 .6723.55963 1.2173 1.25 1.2173h23.43755c.6903 0 1.25-.545 1.25-1.2173v-14.2942c0-.2182-.0752-.43-.2136-.6015l-1.5656-1.94165-1.8415 14.64615h-18.69621z" fill="#3f9bea"/></g><path d="m14.7734 25.7031h2.875v1.5782c0 .7939-.6436 1.4375-1.4375 1.4375s-1.4375-.6436-1.4375-1.4376z" fill="url(#i)"/><path d="m14.7734 25.7031h2.875v1.5782c0 .7939-.6436 1.4375-1.4375 1.4375s-1.4375-.6436-1.4375-1.4376z" fill="url(#j)"/><g filter="url(#d)"><path d="m3.42445 10.4547 1.56559-1.99376 1.84154 15.03906h9.34812v3.5h-11.71876c-.69036 0-1.25-.5596-1.25-1.25v-14.6777c0-.224.07518-.4415.21351-.6176z" fill="url(#k)"/></g><g filter="url(#e)"><path d="m28.9349 10.4547-1.5656-1.99376-1.8415 15.03906h-9.3481v3.5h11.7187c.6904 0 1.25-.5596 1.25-1.25v-14.6777c0-.224-.0751-.4415-.2135-.6176z" fill="url(#l)"/><path d="m28.9349 10.4547-1.5656-1.99376-1.8415 15.03906h-9.3481v3.5h11.7187c.6904 0 1.25-.5596 1.25-1.25v-14.6777c0-.224-.0751-.4415-.2135-.6176z" fill="url(#m)"/></g><path d="m28.9349 10.4547-1.5656-1.99376-1.8415 15.03906h-9.3481v3.5h11.7187c.6904 0 1.25-.5596 1.25-1.25v-14.6777c0-.224-.0751-.4415-.2135-.6176z" fill="url(#n)"/><g filter="url(#f)"><path d="m4.80469 9.03125c0-.55228.44771-1 1-1h7.87501c1.3807 0 2.5 1.11929 2.5 2.49995v16.461c0-1.1003-1.1328-1.9922-2.4453-1.9922h-7.67971c-.69036 0-1.25-.5596-1.25-1.25z" fill="url(#p)"/><path d="m4.80469 9.03125c0-.55228.44771-1 1-1h7.87501c1.3807 0 2.5 1.11929 2.5 2.49995v16.461c0-1.1003-1.1328-1.9922-2.4453-1.9922h-7.67971c-.69036 0-1.25-.5596-1.25-1.25z" fill="url(#r)"/><path d="m4.80469 9.03125c0-.55228.44771-1 1-1h7.87501c1.3807 0 2.5 1.11929 2.5 2.49995v16.461c0-1.1003-1.1328-1.9922-2.4453-1.9922h-7.67971c-.69036 0-1.25-.5596-1.25-1.25z" fill="url(#s)"/></g><g filter="url(#g)"><path d="m27.5547 9.03125c0-.55228-.4477-1-1-1h-7.875c-1.3807 0-2.5 1.11929-2.5 2.49995v16.461c0-1.1003 1.1328-1.9922 2.4453-1.9922h7.6797c.6903 0 1.25-.5596 1.25-1.25z" fill="url(#t)"/><path d="m27.5547 9.03125c0-.55228-.4477-1-1-1h-7.875c-1.3807 0-2.5 1.11929-2.5 2.49995v16.461c0-1.1003 1.1328-1.9922 2.4453-1.9922h7.6797c.6903 0 1.25-.5596 1.25-1.25z" fill="url(#u)"/><path d="m27.5547 9.03125c0-.55228-.4477-1-1-1h-7.875c-1.3807 0-2.5 1.11929-2.5 2.49995v16.461c0-1.1003 1.1328-1.9922 2.4453-1.9922h7.6797c.6903 0 1.25-.5596 1.25-1.25z" fill="url(#v)"/></g></svg>
