<svg width="22pt" height="22pt" viewBox="0 0 24 24"><g fill="none" fill-rule="evenodd"><path fill="currentColor" fill-rule="nonzero" d="M10,4.5 C10,4.77614237 9.77614237,5 9.5,5 C9.22385763,5 9,4.77614237 9,4.5 C9,3.67157288 9.67157288,3 10.5,3 L13.5,3 C14.3284271,3 15,3.67157288 15,4.5 C15,4.77614237 14.7761424,5 14.5,5 C14.2238576,5 14,4.77614237 14,4.5 C14,4.22385763 13.7761424,4 13.5,4 L10.5,4 C10.2238576,4 10,4.22385763 10,4.5 Z M7.5,4 C7.77614237,4 8,4.22385763 8,4.5 C8,4.77614237 7.77614237,5 7.5,5 C6.67157288,5 6,5.67157288 6,6.5 L6,18.5 C6,19.3284271 6.67157288,20 7.5,20 L16.5,20 C17.3284271,20 18,19.3284271 18,18.5 L18,6.5 C18,5.67157288 17.3284271,5 16.5,5 C16.2238576,5 16,4.77614237 16,4.5 C16,4.22385763 16.2238576,4 16.5,4 C17.8807119,4 19,5.11928813 19,6.5 L19,18.5 C19,19.8807119 17.8807119,21 16.5,21 L7.5,21 C6.11928813,21 5,19.8807119 5,18.5 L5,6.5 C5,5.11928813 6.11928813,4 7.5,4 Z"/><path fill="#000" fill-rule="nonzero" d="M8.5 10C8.22385763 10 8 9.77614237 8 9.5 8 9.22385763 8.22385763 9 8.5 9L15.5 9C15.7761424 9 16 9.22385763 16 9.5 16 9.77614237 15.7761424 10 15.5 10L8.5 10zM8.5 13C8.22385763 13 8 12.7761424 8 12.5 8 12.2238576 8.22385763 12 8.5 12L15.5 12C15.7761424 12 16 12.2238576 16 12.5 16 12.7761424 15.7761424 13 15.5 13L8.5 13zM8.5 16C8.22385763 16 8 15.7761424 8 15.5 8 15.2238576 8.22385763 15 8.5 15L13.5 15C13.7761424 15 14 15.2238576 14 15.5 14 15.7761424 13.7761424 16 13.5 16L8.5 16z"/></g></svg>
