<svg role="img" viewBox="0 0 24 24" xmlns="http://www.w3.org/2000/svg"><title>Tiddlywiki</title><path d="M 11.996094 0 L 23.992188 6 L 23.992188 17.996094 L 11.996094 23.992188 L 0 17.996094 L 0 6 Z M 16.640625 17.882812 L 16.824219 17.863281 C 16.957031 17.820312 17.078125 17.78125 17.160156 17.675781 C 17.425781 17.34375 16.742188 17.210938 16.496094 16.847656 C 16.25 16.484375 15.242188 14.484375 16.007812 13.925781 C 16.773438 13.363281 17.601562 13.132812 17.917969 12.609375 C 18.054688 12.375 18.195312 12.132812 18.230469 11.867188 C 18.417969 12 18.566406 12.121094 18.816406 12.128906 C 19.480469 12.164062 20.050781 11.472656 20.347656 10.816406 C 20.507812 10.410156 20.632812 9.984375 20.605469 9.589844 C 20.523438 8.828125 20.617188 8.007812 21.328125 7.503906 C 20.628906 7.804688 19.960938 8.195312 19.167969 8.292969 C 18.726562 8.179688 18.285156 8.074219 17.824219 8.089844 C 17.59375 7.839844 17.285156 7.367188 16.886719 7.308594 C 16.207031 7.519531 16.1875 8.414062 15.898438 9.632812 C 15.457031 9.527344 15.003906 9.457031 14.546875 9.4375 C 13.914062 9.402344 12.882812 9.570312 12.15625 9.554688 C 11.429688 9.535156 10.003906 8.992188 8.816406 9.109375 C 8.339844 9.160156 7.855469 9.226562 7.414062 9.398438 C 7.144531 9.503906 6.75 9.820312 6.554688 9.867188 C 4.570312 10.339844 1.34375 10.320312 2.003906 7.765625 C 2.058594 7.570312 2.070312 7.394531 1.96875 7.347656 C 1.84375 7.292969 1.769531 7.410156 1.695312 7.535156 C 0.539062 9.671875 2.589844 11.050781 4.921875 11.054688 C 5.65625 11.007812 5.300781 11.046875 5.984375 10.9375 L 5.964844 11.019531 C 5.917969 11.726562 6.289062 12.351562 6.980469 12.738281 C 6.664062 13.507812 6.035156 14.125 5.605469 14.832031 C 5.765625 15.714844 6.8125 16.890625 7.246094 17.058594 C 7.628906 17.203125 8.460938 17.207031 8.652344 16.96875 C 8.722656 16.855469 8.675781 16.617188 8.601562 16.496094 C 8.925781 16.800781 9.367188 17.230469 9.789062 17.4375 C 10.042969 17.539062 10.300781 17.605469 10.585938 17.617188 L 10.945312 17.601562 C 11.128906 17.566406 11.339844 17.542969 11.460938 17.40625 C 11.597656 17.207031 11.472656 16.648438 10.90625 16.609375 C 10.339844 16.570312 9.972656 16.386719 9.453125 15.726562 C 9.023438 15.089844 9.542969 14.210938 9.714844 13.582031 C 10.613281 13.707031 11.515625 13.804688 12.425781 13.804688 C 12.820312 13.789062 13.210938 13.777344 13.597656 13.710938 C 13.722656 13.980469 14.070312 14.738281 14.074219 14.949219 C 14.082031 15.550781 13.816406 16.15625 13.929688 16.757812 C 14 16.933594 13.9375 17.269531 14.34375 17.28125 C 14.585938 17.292969 14.433594 17.285156 14.796875 17.300781 L 15.109375 17.292969 C 15.507812 17.867188 15.855469 17.863281 16.640625 17.882812 Z M 7.824219 16.226562 L 7.75 16.167969 C 7.535156 15.96875 6.976562 15.625 7.082031 15.304688 C 7.167969 15.066406 7.332031 14.847656 7.460938 14.621094 L 7.453125 14.644531 C 7.433594 14.925781 7.386719 15.203125 7.492188 15.480469 C 7.816406 15.707031 8.269531 16.070312 8.570312 16.316406 C 8.40625 16.28125 8.101562 16.199219 7.945312 16.25 Z M 7.824219 16.226562 "/> </svg>