<?xml version="1.0" encoding="UTF-8" standalone="no"?>
<!DOCTYPE svg PUBLIC "-//W3C//DTD SVG 1.1//EN" "http://www.w3.org/Graphics/SVG/1.1/DTD/svg11.dtd">
<svg xmlns="http://www.w3.org/2000/svg" version="1.1" viewBox="0 0 100 100">
<g stroke-width="2.0" fill="none" stroke-linecap="butt">
<path stroke="#baa1a4" vector-effect="non-scaling-stroke" d="
  M 89.50 19.04
  Q 87.06 19.85 84.73 20.93
  Q 84.42 21.07 80.57 22.77
  Q 76.10 24.73 73.19 27.94
  Q 69.81 31.65 66.46 37.76
  Q 65.19 40.10 65.23 41.94
  Q 65.29 44.26 67.48 43.51
  Q 70.06 42.62 71.87 40.61
  Q 72.39 40.03 72.58 40.29
  C 72.69 40.43 72.63 40.72 72.45 41.02
  L 71.35 42.80
  C 71.11 43.18 71.29 43.71 71.74 43.92
  Q 75.31 45.63 73.24 45.94
  Q 71.88 46.14 71.79 46.17
  Q 68.70 47.05 71.92 49.38
  Q 72.56 49.83 71.78 49.93
  Q 64.66 50.84 68.44 56.06
  Q 69.05 56.91 72.50 59.54"
/>
<path stroke="#819c60" vector-effect="non-scaling-stroke" d="
  M 21.04 51.75
  L 21.71 51.75"
/>
<path stroke="#4b4b4b" vector-effect="non-scaling-stroke" d="
  M 21.71 51.75
  L 21.75 56.21"
/>
<path stroke="#bababa" vector-effect="non-scaling-stroke" d="
  M 21.75 56.21
  Q 17.52 56.19 16.74 59.36
  Q 16.28 61.20 17.38 62.82
  Q 18.38 64.31 20.19 65.31
  Q 24.09 67.47 25.36 68.20
  Q 30.07 70.90 30.85 76.04
  Q 31.34 79.28 31.97 80.25
  Q 33.59 82.72 36.51 82.86
  Q 39.06 82.99 42.35 80.65
  Q 50.43 74.90 56.32 66.80
  Q 56.74 66.22 56.00 66.28
  L 46.00 67.04"
/>
<path stroke="#4b4b4b" vector-effect="non-scaling-stroke" d="
  M 46.00 67.04
  L 42.29 65.25"
/>
<path stroke="#bababa" vector-effect="non-scaling-stroke" d="
  M 42.29 65.25
  Q 41.00 61.25 42.11 57.23
  C 42.20 56.91 42.13 56.58 41.93 56.37
  Q 41.34 55.77 40.50 55.46"
/>
<path stroke="#bab589" vector-effect="non-scaling-stroke" d="
  M 40.50 55.46
  Q 41.89 51.19 43.91 47.17
  Q 45.70 43.63 46.50 39.75
  Q 47.31 35.82 43.56 37.56
  L 37.79 40.25"
/>
<path stroke="#a3a7a9" vector-effect="non-scaling-stroke" d="
  M 37.79 40.25
  Q 36.67 39.87 35.83 40.63
  Q 35.49 40.94 35.46 40.51
  Q 35.23 37.99 35.04 35.46
  Q 34.99 34.88 34.78 34.59
  Q 34.27 33.87 33.61 35.09
  Q 32.18 37.71 31.17 40.52
  Q 31.01 40.95 30.74 40.57
  Q 29.93 39.44 28.54 40.00"
/>
<path stroke="#bab589" vector-effect="non-scaling-stroke" d="
  M 28.54 40.00
  Q 28.98 34.39 26.04 37.26
  Q 25.41 37.88 24.58 39.31
  Q 23.67 40.86 22.54 42.25"
/>
<path stroke="#3d3d3d" vector-effect="non-scaling-stroke" d="
  M 26.50 33.21
  L 28.57 33.13
  C 28.84 33.12 29.13 33.30 29.35 33.59
  Q 31.42 36.37 31.10 31.99
  Q 31.00 30.65 31.00 29.29"
/>
<path stroke="#baa1a4" vector-effect="non-scaling-stroke" d="
  M 32.46 27.75
  Q 32.76 28.52 33.22 28.18
  Q 33.84 27.73 34.03 27.64
  Q 35.25 27.05 35.00 25.50
  Q 34.48 22.27 31.00 23.04"
/>
<path stroke="#baa1a4" vector-effect="non-scaling-stroke" d="
  M 30.29 20.75
  L 32.93 21.38
  Q 33.49 21.52 33.20 20.99
  Q 31.43 17.74 26.75 12.25
  Q 25.09 10.31 24.25 10.04"
/>
<path stroke="#909090" vector-effect="non-scaling-stroke" d="
  M 42.29 65.25
  Q 39.66 67.21 36.57 67.07
  Q 33.05 66.90 32.42 66.96
  Q 30.44 67.15 28.24 67.28
  Q 27.54 67.32 28.14 67.69
  Q 30.30 68.96 32.69 70.31
  Q 34.59 71.38 34.04 74.50"
/>
<path stroke="#ffa9a9" vector-effect="non-scaling-stroke" d="
  M 34.04 74.50
  Q 33.49 78.85 36.76 79.12
  Q 38.77 79.28 40.65 77.56
  Q 43.56 74.87 44.96 71.00"
/>
<path stroke="#909090" vector-effect="non-scaling-stroke" d="
  M 44.96 71.00
  L 46.00 67.04"
/>
<path stroke="#909090" vector-effect="non-scaling-stroke" d="
  M 24.25 56.46
  Q 22.31 57.45 23.52 59.22
  Q 27.64 65.28 32.69 59.94
  Q 34.12 58.42 32.50 56.71"
/>
<path stroke="#908b5f" vector-effect="non-scaling-stroke" d="
  M 24.50 56.54
  L 24.25 56.46"
/>
<path stroke="#ffface" vector-effect="non-scaling-stroke" d="
  M 24.25 56.46
  Q 24.13 55.75 23.25 55.96"
/>
<path stroke="#908b5f" vector-effect="non-scaling-stroke" d="
  M 23.25 55.96
  L 23.29 55.75"
/>
<path stroke="#c6dc74" vector-effect="non-scaling-stroke" d="
  M 23.29 55.75
  Q 23.84 55.88 24.30 55.73
  C 24.57 55.64 24.77 55.35 24.81 55.00
  Q 25.24 50.79 23.85 46.77
  C 23.74 46.43 23.51 46.17 23.24 46.07
  Q 22.69 45.85 22.04 46.00"
/>
<path stroke="#ffface" vector-effect="non-scaling-stroke" d="
  M 40.50 55.46
  Q 39.01 56.04 37.50 55.46"
/>
<path stroke="#c6dc74" vector-effect="non-scaling-stroke" d="
  M 37.50 55.46
  Q 38.86 51.12 37.92 46.68
  C 37.85 46.34 37.64 46.07 37.37 45.96
  Q 36.20 45.50 35.29 46.75"
/>
<path stroke="#577236" vector-effect="non-scaling-stroke" d="
  M 23.29 55.75
  Q 23.63 53.10 22.70 50.72
  Q 22.51 50.24 22.27 50.70
  L 21.71 51.75"
/>
<path stroke="#903a3a" vector-effect="non-scaling-stroke" d="
  M 44.96 71.00
  Q 42.75 68.86 40.44 70.44
  Q 38.87 71.51 37.56 71.58
  Q 36.96 71.61 36.63 71.82
  Q 35.03 72.81 34.04 74.50"
/>
<path stroke="#e8e7bd" vector-effect="non-scaling-stroke" d="
  M 37.79 40.25
  Q 36.97 41.85 36.24 43.50
  Q 36.21 43.57 35.45 44.76
  Q 34.89 45.66 35.29 46.75"
/>
<path stroke="#aece94" vector-effect="non-scaling-stroke" d="
  M 35.29 46.75
  Q 34.50 47.85 35.04 49.00"
/>
<path stroke="#797d7f" vector-effect="non-scaling-stroke" d="
  M 35.04 49.00
  Q 33.65 52.31 33.75 55.96"
/>
<path stroke="#e8ecee" vector-effect="non-scaling-stroke" d="
  M 33.75 55.96
  L 32.50 56.71"
/>
<path stroke="#797d7f" vector-effect="non-scaling-stroke" d="
  M 32.50 56.71
  Q 31.22 55.79 30.00 56.71"
/>
<path stroke="#e8ecee" vector-effect="non-scaling-stroke" d="
  M 30.00 56.71
  Q 27.40 56.38 24.96 57.25"
/>
<path stroke="#797d7f" vector-effect="non-scaling-stroke" d="
  M 24.96 57.25
  L 24.50 56.54"
/>
<path stroke="#e8e7bd" vector-effect="non-scaling-stroke" d="
  M 24.50 56.54
  L 25.99 55.92
  C 26.25 55.81 26.44 55.54 26.49 55.19
  L 28.54 40.00"
/>
<path stroke="#909090" vector-effect="non-scaling-stroke" d="
  M 23.25 55.96
  Q 22.55 56.63 21.75 56.21"
/>
<path stroke="#c6e1a5" vector-effect="non-scaling-stroke" d="
  M 37.50 55.46
  Q 36.79 55.98 36.00 55.46"
/>
<path stroke="#577236" vector-effect="non-scaling-stroke" d="
  M 36.00 55.46
  Q 36.07 51.35 35.94 50.06
  Q 35.85 49.26 35.04 49.00"
/>
<path stroke="#909090" vector-effect="non-scaling-stroke" d="
  M 36.00 55.46
  Q 35.00 56.23 33.75 55.96"
/>
<path stroke="#909090" vector-effect="non-scaling-stroke" d="
  M 24.96 57.25
  Q 26.75 58.90 29.11 58.21
  Q 29.62 58.06 30.03 57.97
  Q 31.97 57.54 30.00 56.71"
/>
<path stroke="#3d3d3d" vector-effect="non-scaling-stroke" d="
  M 50.15 34.32
  Q 51.72 37.26 51.77 41.61
  Q 51.79 44.17 52.52 41.71
  Q 53.35 38.89 53.40 36.07
  Q 53.45 32.79 51.74 30.86
  Q 48.81 27.56 43.80 30.32
  Q 42.08 31.26 44.04 31.24
  Q 45.80 31.23 47.60 31.99
  Q 49.30 32.71 50.15 34.32"
/>
</g>
<path fill="#757575" d="
  M 89.50 19.04
  Q 87.06 19.85 84.73 20.93
  Q 84.42 21.07 80.57 22.77
  Q 76.10 24.73 73.19 27.94
  Q 69.81 31.65 66.46 37.76
  Q 65.19 40.10 65.23 41.94
  Q 65.29 44.26 67.48 43.51
  Q 70.06 42.62 71.87 40.61
  Q 72.39 40.03 72.58 40.29
  C 72.69 40.43 72.63 40.72 72.45 41.02
  L 71.35 42.80
  C 71.11 43.18 71.29 43.71 71.74 43.92
  Q 75.31 45.63 73.24 45.94
  Q 71.88 46.14 71.79 46.17
  Q 68.70 47.05 71.92 49.38
  Q 72.56 49.83 71.78 49.93
  Q 64.66 50.84 68.44 56.06
  Q 69.05 56.91 72.50 59.54
  L 84.35 71.71
  Q 85.12 72.50 84.01 72.30
  Q 75.67 70.76 66.71 71.85
  Q 65.30 72.02 66.51 72.76
  Q 68.88 74.22 72.01 74.75
  Q 73.32 74.97 72.18 75.64
  Q 70.20 76.80 67.66 77.01
  Q 66.27 77.12 67.40 77.93
  Q 71.50 80.86 72.62 86.91
  C 72.68 87.22 72.45 87.50 72.14 87.50
  L 17.24 87.50
  C 16.86 87.50 16.59 87.11 16.73 86.75
  Q 19.66 78.89 26.20 73.50
  Q 27.32 72.57 25.95 72.07
  Q 18.80 69.43 11.73 72.45
  Q 10.26 73.07 10.42 72.23
  Q 10.49 71.87 10.90 71.52
  Q 11.68 70.84 12.52 70.12
  Q 12.99 69.71 12.39 69.63
  L 6.94 68.93
  C 6.56 68.88 6.33 68.50 6.48 68.17
  Q 11.16 58.08 19.75 52.99
  Q 19.82 52.95 20.41 52.73
  Q 21.02 52.50 21.04 51.75
  L 21.71 51.75
  L 21.75 56.21
  Q 17.52 56.19 16.74 59.36
  Q 16.28 61.20 17.38 62.82
  Q 18.38 64.31 20.19 65.31
  Q 24.09 67.47 25.36 68.20
  Q 30.07 70.90 30.85 76.04
  Q 31.34 79.28 31.97 80.25
  Q 33.59 82.72 36.51 82.86
  Q 39.06 82.99 42.35 80.65
  Q 50.43 74.90 56.32 66.80
  Q 56.74 66.22 56.00 66.28
  L 46.00 67.04
  L 42.29 65.25
  Q 41.00 61.25 42.11 57.23
  C 42.20 56.91 42.13 56.58 41.93 56.37
  Q 41.34 55.77 40.50 55.46
  Q 41.89 51.19 43.91 47.17
  Q 45.70 43.63 46.50 39.75
  Q 47.31 35.82 43.56 37.56
  L 37.79 40.25
  Q 36.67 39.87 35.83 40.63
  Q 35.49 40.94 35.46 40.51
  Q 35.23 37.99 35.04 35.46
  Q 34.99 34.88 34.78 34.59
  Q 34.27 33.87 33.61 35.09
  Q 32.18 37.71 31.17 40.52
  Q 31.01 40.95 30.74 40.57
  Q 29.93 39.44 28.54 40.00
  Q 28.98 34.39 26.04 37.26
  Q 25.41 37.88 24.58 39.31
  Q 23.67 40.86 22.54 42.25
  Q 23.11 37.10 26.50 33.21
  L 28.57 33.13
  C 28.84 33.12 29.13 33.30 29.35 33.59
  Q 31.42 36.37 31.10 31.99
  Q 31.00 30.65 31.00 29.29
  Q 32.10 28.87 32.46 27.75
  Q 32.76 28.52 33.22 28.18
  Q 33.84 27.73 34.03 27.64
  Q 35.25 27.05 35.00 25.50
  Q 34.48 22.27 31.00 23.04
  Q 27.36 21.88 24.03 20.06
  Q 23.80 19.93 23.67 19.73
  Q 23.15 18.91 24.44 19.56
  Q 26.42 20.56 28.61 20.94
  Q 28.74 20.96 29.34 21.20
  Q 29.92 21.44 30.29 20.75
  L 32.93 21.38
  Q 33.49 21.52 33.20 20.99
  Q 31.43 17.74 26.75 12.25
  Q 25.09 10.31 24.25 10.04
  Q 22.15 7.87 24.60 8.84
  Q 25.06 9.02 25.41 9.12
  Q 35.15 12.16 41.14 20.40
  C 41.31 20.64 41.60 20.81 41.93 20.89
  L 53.24 23.44
  Q 55.44 23.93 53.70 22.57
  Q 51.05 20.51 50.40 17.30
  Q 50.30 16.80 50.62 17.19
  Q 55.33 22.85 61.63 26.68
  C 61.89 26.84 62.22 26.82 62.45 26.63
  Q 77.13 15.20 96.10 14.75
  Q 97.24 14.72 96.23 15.29
  L 89.50 19.04
  Z
  M 49.60 24.55
  Q 47.31 23.69 44.81 23.24
  Q 42.66 22.86 44.41 24.16
  Q 46.25 25.53 49.57 24.94
  Q 50.31 24.81 49.60 24.55
  Z
  M 50.15 34.32
  Q 51.72 37.26 51.77 41.61
  Q 51.79 44.17 52.52 41.71
  Q 53.35 38.89 53.40 36.07
  Q 53.45 32.79 51.74 30.86
  Q 48.81 27.56 43.80 30.32
  Q 42.08 31.26 44.04 31.24
  Q 45.80 31.23 47.60 31.99
  Q 49.30 32.71 50.15 34.32
  Z"
/>
<path fill="#ffcdd2" d="
  M 24.25 10.04
  Q 25.09 10.31 26.75 12.25
  Q 31.43 17.74 33.20 20.99
  Q 33.49 21.52 32.93 21.38
  L 30.29 20.75
  Q 27.84 15.08 24.25 10.04
  Z"
/>
<path fill="#ffcdd2" d="
  M 89.50 19.04
  Q 86.57 22.73 86.48 27.50
  Q 86.41 31.29 86.89 35.04
  Q 87.58 40.45 87.38 42.52
  Q 86.08 55.57 72.50 59.54
  Q 69.05 56.91 68.44 56.06
  Q 64.66 50.84 71.78 49.93
  Q 72.56 49.83 71.92 49.38
  Q 68.70 47.05 71.79 46.17
  Q 71.88 46.14 73.24 45.94
  Q 75.31 45.63 71.74 43.92
  C 71.29 43.71 71.11 43.18 71.35 42.80
  L 72.45 41.02
  C 72.63 40.72 72.69 40.43 72.58 40.29
  Q 72.39 40.03 71.87 40.61
  Q 70.06 42.62 67.48 43.51
  Q 65.29 44.26 65.23 41.94
  Q 65.19 40.10 66.46 37.76
  Q 69.81 31.65 73.19 27.94
  Q 76.10 24.73 80.57 22.77
  Q 84.42 21.07 84.73 20.93
  Q 87.06 19.85 89.50 19.04
  Z"
/>
<path fill="#ffcdd2" d="
  M 31.00 23.04
  Q 34.48 22.27 35.00 25.50
  Q 35.25 27.05 34.03 27.64
  Q 33.84 27.73 33.22 28.18
  Q 32.76 28.52 32.46 27.75
  L 31.00 23.04
  Z"
/>
<path fill="#050405" d="
  M 47.60 31.99
  Q 45.80 31.23 44.04 31.24
  Q 42.08 31.26 43.80 30.32
  Q 48.81 27.56 51.74 30.86
  Q 53.45 32.79 53.40 36.07
  Q 53.35 38.89 52.52 41.71
  Q 51.79 44.17 51.77 41.61
  Q 51.72 37.26 50.15 34.32
  Q 49.30 32.71 47.60 31.99
  Z"
/>
<path fill="#050405" d="
  M 31.00 29.29
  Q 31.00 30.65 31.10 31.99
  Q 31.42 36.37 29.35 33.59
  C 29.13 33.30 28.84 33.12 28.57 33.13
  L 26.50 33.21
  Q 27.66 29.94 31.00 29.29
  Z"
/>
<path fill="#d0d8dc" d="
  M 37.79 40.25
  Q 36.97 41.85 36.24 43.50
  Q 36.21 43.57 35.45 44.76
  Q 34.89 45.66 35.29 46.75
  Q 34.50 47.85 35.04 49.00
  Q 33.65 52.31 33.75 55.96
  L 32.50 56.71
  Q 31.22 55.79 30.00 56.71
  Q 27.40 56.38 24.96 57.25
  L 24.50 56.54
  L 25.99 55.92
  C 26.25 55.81 26.44 55.54 26.49 55.19
  L 28.54 40.00
  Q 29.93 39.44 30.74 40.57
  Q 31.01 40.95 31.17 40.52
  Q 32.18 37.71 33.61 35.09
  Q 34.27 33.87 34.78 34.59
  Q 34.99 34.88 35.04 35.46
  Q 35.23 37.99 35.46 40.51
  Q 35.49 40.94 35.83 40.63
  Q 36.67 39.87 37.79 40.25
  Z"
/>
<path fill="#fff59d" d="
  M 28.54 40.00
  L 26.49 55.19
  C 26.44 55.54 26.25 55.81 25.99 55.92
  L 24.50 56.54
  L 24.25 56.46
  Q 24.13 55.75 23.25 55.96
  L 23.29 55.75
  Q 23.84 55.88 24.30 55.73
  C 24.57 55.64 24.77 55.35 24.81 55.00
  Q 25.24 50.79 23.85 46.77
  C 23.74 46.43 23.51 46.17 23.24 46.07
  Q 22.69 45.85 22.04 46.00
  L 22.54 42.25
  Q 23.67 40.86 24.58 39.31
  Q 25.41 37.88 26.04 37.26
  Q 28.98 34.39 28.54 40.00
  Z"
/>
<path fill="#fff59d" d="
  M 40.50 55.46
  Q 39.01 56.04 37.50 55.46
  Q 38.86 51.12 37.92 46.68
  C 37.85 46.34 37.64 46.07 37.37 45.96
  Q 36.20 45.50 35.29 46.75
  Q 34.89 45.66 35.45 44.76
  Q 36.21 43.57 36.24 43.50
  Q 36.97 41.85 37.79 40.25
  L 43.56 37.56
  Q 47.31 35.82 46.50 39.75
  Q 45.70 43.63 43.91 47.17
  Q 41.89 51.19 40.50 55.46
  Z"
/>
<path fill="#8cc34b" d="
  M 37.50 55.46
  Q 36.79 55.98 36.00 55.46
  Q 36.07 51.35 35.94 50.06
  Q 35.85 49.26 35.04 49.00
  Q 34.50 47.85 35.29 46.75
  Q 36.20 45.50 37.37 45.96
  C 37.64 46.07 37.85 46.34 37.92 46.68
  Q 38.86 51.12 37.50 55.46
  Z"
/>
<path fill="#8cc34b" d="
  M 22.04 46.00
  Q 22.69 45.85 23.24 46.07
  C 23.51 46.17 23.74 46.43 23.85 46.77
  Q 25.24 50.79 24.81 55.00
  C 24.77 55.35 24.57 55.64 24.30 55.73
  Q 23.84 55.88 23.29 55.75
  Q 23.63 53.10 22.70 50.72
  Q 22.51 50.24 22.27 50.70
  L 21.71 51.75
  L 21.04 51.75
  L 22.04 46.00
  Z"
/>
<path fill="#212121" d="
  M 35.04 49.00
  Q 35.85 49.26 35.94 50.06
  Q 36.07 51.35 36.00 55.46
  Q 35.00 56.23 33.75 55.96
  Q 33.65 52.31 35.04 49.00
  Z"
/>
<path fill="#212121" d="
  M 23.29 55.75
  L 23.25 55.96
  Q 22.55 56.63 21.75 56.21
  L 21.71 51.75
  L 22.27 50.70
  Q 22.51 50.24 22.70 50.72
  Q 23.63 53.10 23.29 55.75
  Z"
/>
<path fill="#ffffff" d="
  M 36.00 55.46
  Q 36.79 55.98 37.50 55.46
  Q 39.01 56.04 40.50 55.46
  Q 41.34 55.77 41.93 56.37
  C 42.13 56.58 42.20 56.91 42.11 57.23
  Q 41.00 61.25 42.29 65.25
  Q 39.66 67.21 36.57 67.07
  Q 33.05 66.90 32.42 66.96
  Q 30.44 67.15 28.24 67.28
  Q 27.54 67.32 28.14 67.69
  Q 30.30 68.96 32.69 70.31
  Q 34.59 71.38 34.04 74.50
  Q 33.49 78.85 36.76 79.12
  Q 38.77 79.28 40.65 77.56
  Q 43.56 74.87 44.96 71.00
  L 46.00 67.04
  L 56.00 66.28
  Q 56.74 66.22 56.32 66.80
  Q 50.43 74.90 42.35 80.65
  Q 39.06 82.99 36.51 82.86
  Q 33.59 82.72 31.97 80.25
  Q 31.34 79.28 30.85 76.04
  Q 30.07 70.90 25.36 68.20
  Q 24.09 67.47 20.19 65.31
  Q 18.38 64.31 17.38 62.82
  Q 16.28 61.20 16.74 59.36
  Q 17.52 56.19 21.75 56.21
  Q 22.55 56.63 23.25 55.96
  Q 24.13 55.75 24.25 56.46
  Q 22.31 57.45 23.52 59.22
  Q 27.64 65.28 32.69 59.94
  Q 34.12 58.42 32.50 56.71
  L 33.75 55.96
  Q 35.00 56.23 36.00 55.46
  Z"
/>
<path fill="#212121" d="
  M 32.50 56.71
  Q 34.12 58.42 32.69 59.94
  Q 27.64 65.28 23.52 59.22
  Q 22.31 57.45 24.25 56.46
  L 24.50 56.54
  L 24.96 57.25
  Q 26.75 58.90 29.11 58.21
  Q 29.62 58.06 30.03 57.97
  Q 31.97 57.54 30.00 56.71
  Q 31.22 55.79 32.50 56.71
  Z"
/>
<path fill="#ffffff" d="
  M 30.00 56.71
  Q 31.97 57.54 30.03 57.97
  Q 29.62 58.06 29.11 58.21
  Q 26.75 58.90 24.96 57.25
  Q 27.40 56.38 30.00 56.71
  Z"
/>
<path fill="#212121" d="
  M 42.29 65.25
  L 46.00 67.04
  L 44.96 71.00
  Q 42.75 68.86 40.44 70.44
  Q 38.87 71.51 37.56 71.58
  Q 36.96 71.61 36.63 71.82
  Q 35.03 72.81 34.04 74.50
  Q 34.59 71.38 32.69 70.31
  Q 30.30 68.96 28.14 67.69
  Q 27.54 67.32 28.24 67.28
  Q 30.44 67.15 32.42 66.96
  Q 33.05 66.90 36.57 67.07
  Q 39.66 67.21 42.29 65.25
  Z"
/>
<path fill="#fe5252" d="
  M 44.96 71.00
  Q 43.56 74.87 40.65 77.56
  Q 38.77 79.28 36.76 79.12
  Q 33.49 78.85 34.04 74.50
  Q 35.03 72.81 36.63 71.82
  Q 36.96 71.61 37.56 71.58
  Q 38.87 71.51 40.44 70.44
  Q 42.75 68.86 44.96 71.00
  Z"
/>
</svg>
