<svg viewBox="0 0 64 64" xmlns="http://www.w3.org/2000/svg"><g transform="matrix(0 1 -1 0 64 0)"><path d="m7.934 41.132 31.894-31.886 14.918 14.922-31.895 31.886z" fill="#ffce31"/><path d="m61.3 4.6-1.9-1.9c-3.6-3.6-9.4-3.6-13.1 0l-6.5 6.5 15 15 6.5-6.5c3.6-3.6 3.6-9.5 0-13.1" fill="#ed4c5c"/><path d="m35.782 13.31 4.1-4.102 14.92 14.92-4.1 4.101z" fill="#93a2aa"/><path d="m37.338 14.865 4.1-4.101 11.739 11.738-4.102 4.1z" fill="#c7d3d8"/><path d="m7.9 41.1-6.5 17 4.5 4.5 17-6.5z" fill="#fed0ac"/><path d="m.3 61.1c-.9 2.4.3 3.5 2.7 2.6l8.2-3.1-7.7-7.7-3.2 8.2" fill="#333"/><path d="m7.89 41.175 27.86-27.86 4.95 4.95-27.86 27.86z" fill="#ffdf85"/><path d="m17.904 51.142 27.86-27.86 4.95 4.95-27.86 27.86z" fill="#ff8736"/></g></svg>