<svg viewBox="0 0 398.75 396.1" xmlns="http://www.w3.org/2000/svg"><rect fill="#32caf8" height="335.98" rx="86.19" width="386.75" x="6" y="54.12"/><path d="m6.44 157.91h386.75v7h-386.75z" fill="#00a3eb"/><path d="m393.19 286.69v28.19a76.32 76.32 0 0 1 -76.1 76.12h-234.54a76.32 76.32 0 0 1 -76.11-76.12v-183.77a75.52 75.52 0 0 1 .88-11.55v155.58a76.32 76.32 0 0 0 76.11 76.11h234.57a76.38 76.38 0 0 0 75.19-64.56z" fill="#00a3eb"/><ellipse cx="360.38" cy="206.85" fill="#fff" rx="3.83" ry="24.95" transform="matrix(.99983842 -.01797592 .01797592 .99983842 -3.67 6.53)"/><ellipse cx="361.11" cy="255.69" fill="#fff" rx="3.83" ry="12.48" transform="matrix(.99983842 -.01797592 .01797592 .99983842 -4.54 6.53)"/><path d="m392.75 128.46v22.35h-385.43v-33a75.52 75.52 0 0 0 -.88 11.55v21.47h-.44v-22.37a76.32 76.32 0 0 1 76.1-76.1h234.55a76.32 76.32 0 0 1 76.1 76.1z" fill="#ffd947"/><path d="m397.17 132.88v22.35h-1.62a76.39 76.39 0 0 0 -74.48-60.48h-234.55a76.39 76.39 0 0 0 -74.52 60.48h-.3v-33a75.52 75.52 0 0 0 -.88 11.55v21.47h-.44v-22.37a76.32 76.32 0 0 1 76.14-76.11h234.54a76.32 76.32 0 0 1 76.11 76.11z" fill="#f3a70f"/><path d="m6 146.58h386.75v12h-386.75z" fill="#426572"/><path d="m306.56 396.1h-214.37a92.29 92.29 0 0 1 -92.19-92.19v-163.6a92.29 92.29 0 0 1 92.19-92.19h214.37a92.29 92.29 0 0 1 92.19 92.19v163.6a92.29 92.29 0 0 1 -92.19 92.19zm-214.37-335.98a80.28 80.28 0 0 0 -80.19 80.19v163.6a80.28 80.28 0 0 0 80.19 80.19h214.37a80.28 80.28 0 0 0 80.19-80.19v-163.6a80.28 80.28 0 0 0 -80.19-80.19z" fill="#426572"/><rect fill="#32caf8" height="93.6" rx="21.19" width="42.38" x="94.74" y="6"/><rect fill="#32caf8" height="93.6" rx="21.19" width="42.38" x="254.56" y="6"/><path d="m115.93 105.6a27.22 27.22 0 0 1 -27.19-27.19v-51.22a27.19 27.19 0 0 1 54.38 0v51.22a27.22 27.22 0 0 1 -27.19 27.19zm0-93.6a15.21 15.21 0 0 0 -15.19 15.19v51.22a15.19 15.19 0 0 0 30.38 0v-51.22a15.21 15.21 0 0 0 -15.19-15.19z" fill="#426572"/><path d="m275.75 105.6a27.22 27.22 0 0 1 -27.19-27.19v-51.22a27.19 27.19 0 1 1 54.38 0v51.22a27.22 27.22 0 0 1 -27.19 27.19zm0-93.6a15.21 15.21 0 0 0 -15.19 15.19v51.22a15.19 15.19 0 1 0 30.38 0v-51.22a15.21 15.21 0 0 0 -15.19-15.19z" fill="#426572"/><text fill="#fff" font-family="Dosis-Bold, Dosis" font-size="194.07" font-weight="700" transform="translate(117.22 325.63)">01</text></svg>