<svg fill="none" height="90" viewBox="0 0 102 90" width="102" xmlns="http://www.w3.org/2000/svg" xmlns:xlink="http://www.w3.org/1999/xlink"><filter id="a" color-interpolation-filters="sRGB" filterUnits="userSpaceOnUse" height="60.5894" width="53.1897" x="5.62938" y="14.4781"><feFlood flood-opacity="0" result="BackgroundImageFix"/><feBlend in="SourceGraphic" in2="BackgroundImageFix" mode="normal" result="shape"/><feGaussianBlur result="effect1_foregroundBlur_1_235" stdDeviation="7.5"/></filter><filter id="b" color-interpolation-filters="sRGB" filterUnits="userSpaceOnUse" height="99.674" width="100.724" x="13.8078" y="-9.47424"><feFlood flood-opacity="0" result="BackgroundImageFix"/><feGaussianBlur in="BackgroundImageFix" stdDeviation="7.5"/><feComposite in2="SourceAlpha" operator="in" result="effect1_backgroundBlur_1_235"/><feBlend in="SourceGraphic" in2="effect1_backgroundBlur_1_235" mode="normal" result="shape"/></filter><filter id="c" color-interpolation-filters="sRGB" filterUnits="userSpaceOnUse" height="45.0994" width="55.4088" x="41.6676" y="58.5806"><feFlood flood-opacity="0" result="BackgroundImageFix"/><feGaussianBlur in="BackgroundImageFix" stdDeviation="7.5"/><feComposite in2="SourceAlpha" operator="in" result="effect1_backgroundBlur_1_235"/><feBlend in="SourceGraphic" in2="effect1_backgroundBlur_1_235" mode="normal" result="shape"/></filter><filter id="d" color-interpolation-filters="sRGB" filterUnits="userSpaceOnUse" height="43.39" width="42.3341" x="49.2425" y="2.70139"><feFlood flood-opacity="0" result="BackgroundImageFix"/><feGaussianBlur in="BackgroundImageFix" stdDeviation="7.5"/><feComposite in2="SourceAlpha" operator="in" result="effect1_backgroundBlur_1_235"/><feColorMatrix in="SourceAlpha" result="hardAlpha" type="matrix" values="0 0 0 0 0 0 0 0 0 0 0 0 0 0 0 0 0 0 127 0"/><feOffset dx="5" dy="5"/><feGaussianBlur stdDeviation="5"/><feColorMatrix type="matrix" values="0 0 0 0 0.15375 0 0 0 0 0.522433 0 0 0 0 0.9 0 0 0 0.5 0"/><feBlend in2="effect1_backgroundBlur_1_235" mode="normal" result="effect2_dropShadow_1_235"/><feBlend in="SourceGraphic" in2="effect2_dropShadow_1_235" mode="normal" result="shape"/></filter><linearGradient id="e"><stop offset="0" stop-color="#39affd"/><stop offset="1" stop-color="#477fff"/></linearGradient><linearGradient id="f" gradientUnits="userSpaceOnUse" x1="61.819" x2="1.64464" xlink:href="#e" y1="28.3909" y2="57.4864"/><linearGradient id="g" gradientUnits="userSpaceOnUse" x1="33.5599" x2="22.3091" xlink:href="#e" y1="71.6415" y2="82.476"/><linearGradient id="h"><stop offset="0" stop-color="#fff" stop-opacity=".25"/><stop offset="1" stop-color="#fff" stop-opacity="0"/></linearGradient><linearGradient id="i" gradientUnits="userSpaceOnUse" x1="32.5803" x2="83.8985" xlink:href="#h" y1="19.4834" y2="63.8996"/><linearGradient id="j" gradientUnits="userSpaceOnUse" x1="60.9519" x2="68.7465" xlink:href="#h" y1="78.964" y2="90.7532"/><linearGradient id="k" gradientUnits="userSpaceOnUse" x1="76.1439" x2="72.2773" y1="21.1387" y2="32.9181"><stop offset="0" stop-color="#fff"/><stop offset="1" stop-color="#fff" stop-opacity=".2"/></linearGradient><linearGradient id="l" gradientUnits="userSpaceOnUse" x1="71.3857" x2="74.065" y1="29.2475" y2="20.1915"><stop offset="0" stop-color="#fff"/><stop offset="1" stop-color="#fff" stop-opacity="0"/></linearGradient><mask id="m" fill="#000" height="81.3885" maskUnits="userSpaceOnUse" width="84.4775" x="19.0139" y="-1.30507"><path d="m19.0139-1.30507h84.4775v81.3885h-84.4775z" fill="#fff"/><path d="m93.3276 39.1535c-3.6372-2.7932-5.5861-5.4672-6.6439-10.4852l-.3596-1.7062c-1.3784-6.5391-3.7715-10.435-7.9317-13.9584-6.4224-5.48003-15.7437-7.63396-24.055-5.882l-.3534.0745c-8.1366 1.71514-15.5675 7.2112-19.3748 14.5701-2.5448 5.0251-3.2983 9.7735-1.8817 16.4936l.3596 1.7062c1.0578 5.018.4414 8.2328-1.8462 12.2748-1.6825 2.9772-1.7091 6.3535-.9728 9.8464.7371 3.4969 2.5828 6.5667 5.4535 8.7733 3.6863 2.5937 8.3656 3.7591 12.7775 3.2032 6.4291-.6071 12.7641-1.6609 19.1336-3.0035 6.3655-1.3418 12.5487-3.1159 18.718-4.9753 4.2568-1.2714 8.0675-4.2265 10.3933-8.0875 1.7317-3.1767 2.1852-6.7312 1.4481-10.2281-.7363-3.4929-2.1234-6.5712-4.8645-8.6159z" fill="#000"/></mask><mask id="n" fill="#000" height="19.0617" maskUnits="userSpaceOnUse" width="28.3286" x="55.7825" y="72.2825"><path d="m55.7825 72.2825h28.3286v19.0617h-28.3286z" fill="#fff"/><path d="m76.7546 74.5806c-2.0873-.0055-14.2584 2.5601-16.1659 3.4077-1.6244.7542-3.2775 2.061-2.8534 4.073.5039 1.8985 1.9848 3.3557 3.7679 4.102l-.0031.0049c2.3441 1.145 4.9172 1.6449 7.4666 1.4816 1.3566-.0969 2.6971-.3878 4.0266-.8488 2.3945-.8788 4.5469-2.3748 6.2294-4.3686l-.0049-.0032c1.3302-1.4025 2.0969-3.3335 1.7915-5.2739-.4241-2.012-2.464-2.5403-4.2547-2.5747z" fill="#000"/></mask><path d="m52.4986 54.3639c-1.3823-2.8883-1.751-5.1691-.8242-8.6279l.3151-1.176c1.2077-4.5072.9484-7.6891-.5288-11.1975-2.2677-5.4413-7.3912-9.7275-13.12-11.2625l-.2436-.0653c-5.6083-1.5027-11.9717-.4283-16.6674 2.9511-3.1722 2.3249-5.1416 5.0435-6.3827 9.6755l-.3151 1.176c-.9268 3.4587-2.3263 5.2658-5.02775 7.0599-1.98831 1.3222-3.07156 3.4161-3.71665 5.8237-.64584 2.4103-.46647 4.9049.62384 7.1859 1.47594 2.7796 4.02136 4.9837 6.94416 6.0315 4.195 1.6532 8.4726 2.9985 12.8629 4.1749 4.3875 1.1756 8.7981 2.0245 13.227 2.8158 3.0523.5533 6.3588-.0828 9.0268-1.752 2.082-1.431 3.4874-3.501 4.1332-5.9113.6451-2.4075.754-4.7625-.3068-6.9018z" fill="url(#f)"/><path d="m30.9857 71.1881c-1.298-.6629-9.6872-2.9108-11.1427-2.9857-1.2498-.0435-2.692.2478-3.0636 1.6347-.2861 1.3413.1757 2.7166 1.0502 3.7446l-.0035.0021c1.0978 1.4535 2.5421 2.5778 4.1812 3.2815.8752.3683 1.8018.6107 2.7754.7437 1.7686.2093 3.5815-.0422 5.259-.7521l-.002-.0035c1.2714-.453 2.3589-1.4132 2.7818-2.7179.3716-1.3868-.7317-2.3602-1.8358-2.9474z" fill="url(#g)"/><g filter="url(#a)" opacity=".5"><path d="m42.9233 49.9488c-.5185-1.8048-.5824-3.2655.0307-5.5538l.2085-.7781c.799-2.9819.8317-5.0324.2983-7.2346-.816-3.4166-3.0538-5.9437-5.7163-6.6571l-.1132-.0303c-2.6064-.6984-5.7006.3114-8.1112 2.7337-1.6306 1.6636-2.7056 3.5233-3.5267 6.5879l-.2085.778c-.6131 2.2883-1.3709 3.5289-2.7504 4.8251-1.0153.9553-1.6361 2.3663-2.0629 3.9591-.4273 1.5947-.4643 3.2034-.0554 4.6287.5686 1.7298 1.6767 3.0337 3.022 3.5692 1.9236.8655 3.9018 1.5273 5.9422 2.0741 2.0391.5464 4.1053.8797 6.1832 1.1749 1.4315.2085 3.0431-.3666 4.4004-1.5803 1.0655-1.0303 1.8391-2.4417 2.2664-4.0364.4267-1.5928.5947-3.1252.1929-4.4601z" fill="#0062ff"/></g><g filter="url(#b)"><path d="m93.3276 39.1535c-3.6372-2.7932-5.5861-5.4672-6.6439-10.4852l-.3596-1.7062c-1.3784-6.5391-3.7715-10.435-7.9317-13.9584-6.4224-5.48003-15.7437-7.63396-24.055-5.882l-.3534.0745c-8.1366 1.71514-15.5675 7.2112-19.3748 14.5701-2.5448 5.0251-3.2983 9.7735-1.8817 16.4936l.3596 1.7062c1.0578 5.018.4414 8.2328-1.8462 12.2748-1.6825 2.9772-1.7091 6.3535-.9728 9.8464.7371 3.4969 2.5828 6.5667 5.4535 8.7733 3.6863 2.5937 8.3656 3.7591 12.7775 3.2032 6.4291-.6071 12.7641-1.6609 19.1336-3.0035 6.3655-1.3418 12.5487-3.1159 18.718-4.9753 4.2568-1.2714 8.0675-4.2265 10.3933-8.0875 1.7317-3.1767 2.1852-6.7312 1.4481-10.2281-.7363-3.4929-2.1234-6.5712-4.8645-8.6159z" fill="#3ea0fe" fill-opacity=".35"/><path d="m92.7185 39.9466c.438.3364 1.0658.254 1.4022-.1841.3364-.438.254-1.0658-.1841-1.4021zm-14.3261-26.9429-.6491.7607.0028.0024zm-43.7832 8.7626-.8882-.4595-.0039.0077zm-3.3683 30.4746-.8703-.4926-.0003.0006zm4.4807 18.6197-.6094.7929c.0111.0085.0225.0169.034.025zm12.7775 3.2032-.0941-.9956c-.0103.001-.0206.0022-.031.0035zm37.8516-7.9788-.2862-.9582-.0024.0007zm10.3933-8.0875.8566.516c.0074-.0123.0145-.0247.0214-.0373zm-2.8185-19.6456c-.4427-.3302-1.0693-.239-1.3995.2036-.3302.4427-.239 1.0693.2036 1.3995zm.0111.0085c-1.7647-1.3552-3.0689-2.6428-4.0609-4.1619-.9905-1.5169-1.7034-3.3167-2.2135-5.7365l-1.957.4126c.5477 2.5982 1.3382 4.6444 2.4959 6.4173 1.1562 1.7707 2.6449 3.2167 4.5174 4.6547zm-6.2744-9.8984-.3596-1.7062-1.957.4126.3596 1.7062zm-.3596-1.7062c-1.4202-6.7372-3.9199-10.836-8.2639-14.5152l-1.2926 1.5262c3.9763 3.3677 6.2629 7.0607 7.5995 13.4016zm-8.2611-14.5128c-6.6729-5.69377-16.3148-7.91167-24.9104-6.09979l.4125 1.95699c8.0271-1.69205 17.0277.3979 23.1997 5.6642zm-24.9104-6.09979-.3534.07449.4125 1.957.3534-.0745zm-.3534.07449c-8.4187 1.7746-16.1061 7.4533-20.0566 15.0891l1.7763.9191c3.664-7.0821 10.8383-12.39553 18.6928-14.0512zm-20.0606 15.0968c-2.6522 5.2371-3.4296 10.2186-1.9681 17.1517l1.957-.4126c-1.3717-6.5072-.6422-11.0223 1.7954-15.8355zm-1.9681 17.1517.3596 1.7062 1.957-.4126-.3596-1.7062zm.3596 1.7062c.5116 2.4271.6057 4.3574.3223 6.1401-.2833 1.7823-.9542 3.4815-2.0603 5.4358l1.7406.9851c1.1815-2.0877 1.9626-4.0168 2.2949-6.1069.3322-2.0898.2056-4.2759-.3405-6.8667zm-1.7383 11.5765c-1.8512 3.2757-1.8419 6.9333-1.0807 10.5446l1.957-.4125c-.7113-3.3744-.649-6.4693.8649-9.1481zm-1.0807 10.5446c.7835 3.7171 2.7526 7.0002 5.8226 9.36l1.2188-1.5857c-2.6713-2.0534-4.3937-4.9101-5.0844-8.1868zm5.8566 9.385c3.8884 2.7358 8.8171 3.9648 13.4779 3.3775l-.2501-1.9843c-4.1629.5245-8.5927-.5775-12.077-3.0289zm13.4469 3.3809c6.4756-.6115 12.849-1.6722 19.2458-3.0206l-.4125-1.957c-6.3422 1.3369-12.6387 2.3837-19.0214 2.9864zm19.2458-3.0206c6.4089-1.351 12.6255-3.1353 18.8003-4.9964l-.5771-1.9149c-6.1638 1.8578-12.3135 3.6216-18.6357 4.9543zm18.7979-4.9957c4.4974-1.3431 8.5106-4.4571 10.9638-8.5296l-1.7132-1.032c-2.1983 3.6494-5.8065 6.4457-9.8229 7.6453zm10.9852-8.5669c1.8515-3.3964 2.3323-7.1953 1.5486-10.9131l-1.957.4125c.6906 3.276.2644 6.5862-1.3476 9.5433zm1.5486-10.9131c-.7612-3.6113-2.2292-6.9615-5.2451-9.2112l-1.1959 1.6031c2.4664 1.8398 3.7727 4.6462 4.484 8.0206z" fill="url(#i)" mask="url(#m)"/></g><g filter="url(#c)"><path d="m76.7546 74.5806c-2.0873-.0055-14.2584 2.5601-16.1659 3.4077-1.6244.7542-3.2775 2.061-2.8534 4.073.5039 1.8985 1.9848 3.3557 3.7679 4.102l-.0031.0049c2.3441 1.145 4.9172 1.6449 7.4666 1.4816 1.3566-.0969 2.6971-.3878 4.0266-.8488 2.3945-.8788 4.5469-2.3748 6.2294-4.3686l-.0049-.0032c1.3302-1.4025 2.0969-3.3335 1.7915-5.2739-.4241-2.012-2.464-2.5403-4.2547-2.5747z" fill="#3ea0fe" fill-opacity=".35"/><path d="m76.752 75.5806c.5523.0014 1.0012-.4451 1.0026-.9974.0015-.5523-.445-1.0012-.9973-1.0026zm-16.1633 2.4077-.4061-.9139c-.005.0023-.0101.0045-.0151.0069zm-2.8534 4.073-.9785.2062c.0035.0169.0075.0337.012.0503zm3.7679 4.102.8413.5406c.1598-.2487.2014-.5554.1135-.8377-.0878-.2822-.296-.5112-.5687-.6253zm-.0031.0049-.8414-.5405c-.1543.2402-.1986.5349-.1217.8098.0769.275.2676.5039.5242.6292zm7.4666 1.4816.064.9979.0072-.0005zm4.0266-.8488.3276.9448c.0057-.002.0113-.004.017-.0061zm6.2294-4.3686.7642.6449c.1841-.2182.2662-.5047.2256-.7873-.0407-.2826-.2002-.5344-.4384-.6918zm-.0049-.0032-.7256-.6881c-.2034.2145-.3015.508-.2679.8018.0336.2937.1955.5575.4421.7205zm1.7915-5.2739.9879-.1555c-.0027-.017-.0058-.0339-.0094-.0508zm-4.2354-3.5745c-.5522-.0106-1.0085.4284-1.0191.9806s.4284 1.0084.9806 1.019zm-.0166-.0002c-.6263-.0017-1.8703.1766-3.3112.4255-1.4796.2556-3.2687.6048-5.0481.9799-1.7795.3751-3.5573.7778-5.0142 1.1412-1.4188.3538-2.6289.6929-3.2012.9472l.8122 1.8277c.3814-.1695 1.408-.469 2.873-.8344 1.427-.3559 3.18-.7531 4.9427-1.1247s3.5269-.7157 4.9761-.9661c1.4879-.257 2.548-.3974 2.9654-.3963zm-16.5898 3.5007c-.8764.4069-1.8437.9981-2.5403 1.8297-.724.8642-1.1566 1.9987-.8704 3.3565l1.957-.4125c-.1379-.6542.0439-1.1791.4466-1.6597.43-.5134 1.1015-.9527 1.8495-1.3001zm-3.3987 5.2365c.598 2.2534 2.3355 3.9256 4.3483 4.768l.7722-1.8449c-1.5535-.6502-2.7778-1.8924-3.1875-3.4361zm3.8931 3.305-.0032.0049 1.6827 1.081.0031-.0048zm.3993 1.4439c2.5006 1.2215 5.2471 1.7554 7.9695 1.581l-.1279-1.9959c-2.3765.1523-4.7763-.3136-6.9638-1.3821zm7.9767 1.5805c1.4528-.1037 2.8795-.4148 4.283-.9014l-.6552-1.8896c-1.2555.4353-2.5099.7061-3.7702.7961zm4.3-.9075c2.5571-.9384 4.8542-2.5356 6.649-4.6624l-1.5285-1.2898c-1.5702 1.8607-3.5778 3.2556-5.8096 4.0747zm6.4362-6.1415-.0048-.0032-1.1029 1.6684.0048.0032zm.1693 1.5192c1.5015-1.5832 2.4162-3.8145 2.0538-6.1176l-1.9757.3109c.2483 1.5778-.3704 3.2085-1.5293 4.4304zm2.0444-6.1684c-.2862-1.3578-1.1399-2.2211-2.1512-2.7196-.973-.4796-2.0966-.6301-3.0627-.6486l-.0385 1.9996c.8246.0159 1.6162.1468 2.2169.4429.5624.2772.9406.684 1.0785 1.3382z" fill="url(#j)" mask="url(#n)"/></g><g filter="url(#d)"><path d="m67.6674 17.7709c-1.4482-.325-2.9103.5207-3.3622 1.8903-.152.7621-.0311 1.5695.3997 2.213s1.1053 1.0995 1.8957 1.2672l.1044.0314c2.3539.7074 4.0447 2.7906 4.2042 5.1921.0768 1.5652 1.4032 2.7716 2.9593 2.7252 1.5662-.0801 2.7658-1.3719 2.7059-2.8953-.3437-4.8434-3.758-8.9867-8.5063-10.3035z" fill="url(#k)"/><path d="m66.6213 23.0436.0001-.0003.0079.0024.1044.0313c2.3926.719 4.1129 2.8369 4.2753 5.2813l.0001.0017c.074 1.5098 1.3535 2.6744 2.8554 2.6301 1.5123-.0779 2.6668-1.3241 2.61-2.7898-.3412-4.7998-3.7254-8.9071-8.4331-10.2126l-.0021-.0006-.3973-.1194c-1.3947-.3112-2.8023.5027-3.24 1.819-.1456.7381-.0269 1.5151.386 2.1318.416.6214 1.0678 1.0626 1.8333 1.2251z" stroke="url(#l)" stroke-opacity=".5" stroke-width=".2"/></g></svg>