<svg viewBox="0 0 128 128" xmlns="http://www.w3.org/2000/svg"><path d="m60.789 115.335a1.75 1.75 0 0 1 -1.049-3.152c.321-.245 7.936-6.2 1.805-15.76-4.689-7.313-1.855-12.932.3-14.881a1.75 1.75 0 0 1 2.36 2.584c-.185.176-3.915 3.855.287 10.408 7.914 12.343-2.55 20.373-2.657 20.452a1.741 1.741 0 0 1 -1.046.349z" fill="#feded6"/><path d="m26.253 18.314h6.542v6.542h-6.542z" fill="#fd748c" transform="matrix(.70710678 -.70710678 .70710678 .70710678 -6.616 27.198)"/><path d="m98.136 88.633h6.542v6.542h-6.542z" fill="#fd748c" transform="matrix(.70710678 -.70710678 .70710678 .70710678 -35.284 98.624)"/><path d="m81.618 33.92h-37.199l18.599-24.67z" fill="#fd748c"/><path d="m47.601 33.92h30.834v48.92h-30.834z" fill="#f9d12f"/><path d="m76.685 106.9a1.75 1.75 0 0 1 -1.75-1.75v-22.31a1.75 1.75 0 1 1 3.5 0v22.315a1.75 1.75 0 0 1 -1.75 1.745z" fill="#feded6"/><path d="m78.436 44.676-30.835 13.983v-8.605l30.835-13.983z" fill="#2ec3fc"/><path d="m78.436 66.225-30.835 13.983v-8.605l30.835-13.983z" fill="#2ec3fc"/><g fill="#fd852b"><path d="m56.285 106.67a2.413 2.413 0 1 0 2.413 2.413 2.416 2.416 0 0 0 -2.413-2.413z"/><path d="m56.285 115.675a2.413 2.413 0 1 0 2.413 2.413 2.416 2.416 0 0 0 -2.413-2.413z"/><path d="m51.783 111.172a2.413 2.413 0 1 0 2.413 2.413 2.416 2.416 0 0 0 -2.413-2.413z"/><path d="m101.946 32.952a2.413 2.413 0 1 0 -2.413-2.413 2.416 2.416 0 0 0 2.413 2.413z"/><path d="m101.946 37.132a2.412 2.412 0 1 0 2.413 2.412 2.415 2.415 0 0 0 -2.413-2.412z"/><path d="m97.444 32.629a2.413 2.413 0 1 0 2.413 2.413 2.416 2.416 0 0 0 -2.413-2.413z"/><path d="m106.449 32.629a2.413 2.413 0 1 0 2.413 2.413 2.416 2.416 0 0 0 -2.413-2.413z"/><path d="m26.054 77.154a2.413 2.413 0 1 0 -2.413-2.413 2.416 2.416 0 0 0 2.413 2.413z"/><path d="m26.054 81.333a2.413 2.413 0 1 0 2.413 2.413 2.416 2.416 0 0 0 -2.413-2.413z"/><path d="m21.551 76.831a2.413 2.413 0 1 0 2.413 2.413 2.416 2.416 0 0 0 -2.413-2.413z"/><path d="m30.556 76.831a2.413 2.413 0 1 0 2.413 2.413 2.416 2.416 0 0 0 -2.413-2.413z"/></g><path d="m67 33.92h11.436v48.92h-11.436z" fill="#f8b62b"/><path d="m81.618 33.92-18.6-24.67 3.982 24.67z" fill="#ec4d85"/><path d="m67 49.862 11.436-5.186v-8.605l-11.436 5.186z" fill="#1ba4fc"/><path d="m67 71.411 11.436-5.186v-8.605l-11.436 5.186z" fill="#1ba4fc"/></svg>