<svg xmlns="http://www.w3.org/2000/svg" width="22" height="22"><path d="M7.563 0c0 5.809-3.13 11-7.563 11 4.434 0 7.563 5.191 7.563 11 0-5.809 3.128-11 7.562-11-4.434 0-7.563-5.191-7.563-11" style="stroke:none;fill-rule:nonzero;fill:#ffe54d;fill-opacity:1"/><path d="M18.219 0c0 2.887-1.582 5.5-3.782 5.5 2.2 0 3.782 2.613 3.782 5.5 0-2.887 1.582-5.5 3.781-5.5-2.2 0-3.781-2.613-3.781-5.5" style="stroke:none;fill-rule:nonzero;fill:#6adbc6;fill-opacity:1"/><path d="M16.5 11c0 2.887-1.582 5.5-3.781 5.5 2.199 0 3.781 2.613 3.781 5.5 0-2.887 1.582-5.5 3.781-5.5-2.199 0-3.781-2.613-3.781-5.5" style="stroke:none;fill-rule:nonzero;fill:#ff73c0;fill-opacity:1"/></svg>