<svg xmlns="http://www.w3.org/2000/svg" width="22" height="22"><path d="M7.105 4.574a.855.855 0 0 0-.164.242l-.003-.003-6.856 15.44.008.005c-.13.246.086.75.52 1.183.437.438.937.649 1.183.524l.008.004 15.437-6.852-.004-.008a.855.855 0 0 0 .243-.164c.953-.953-.594-4.05-3.457-6.914-2.864-2.863-5.961-4.41-6.915-3.457Zm0 0" style="stroke:none;fill-rule:nonzero;fill:#dd2e44;fill-opacity:1"/><path d="M7.945 7.332.254 19.863l-.172.39.008.005c-.13.246.086.75.52 1.183.14.145.288.25.433.344l9.348-11.394Zm0 0" style="stroke:none;fill-rule:nonzero;fill:#ea596e;fill-opacity:1"/><path d="M14.063 7.984c2.855 2.856 4.437 5.899 3.539 6.797-.903.903-3.946-.683-6.801-3.535-2.856-2.855-4.438-5.898-3.54-6.8.903-.9 3.946.683 6.801 3.538Zm0 0" style="stroke:none;fill-rule:nonzero;fill:#a0041e;fill-opacity:1"/><path d="M11.36 8.316a.623.623 0 0 1-.45.133c-.527-.058-.976-.242-1.285-.535-.332-.309-.496-.723-.45-1.137.079-.73.81-1.398 2.055-1.261.485.05.7-.106.707-.18.008-.074-.167-.274-.652-.324-.531-.059-.976-.242-1.293-.535-.328-.309-.492-.723-.445-1.137.078-.73.808-1.399 2.05-1.262.356.035.544-.035.622-.082.062-.039.086-.074.09-.098.007-.074-.168-.273-.653-.324a.613.613 0 0 1-.543-.676.607.607 0 0 1 .672-.539c1.246.133 1.817.942 1.738 1.672-.078.73-.808 1.395-2.054 1.262-.356-.04-.54.035-.617.082-.063.04-.09.074-.09.098-.012.074.168.27.652.324 1.246.133 1.816.941 1.738 1.672-.078.726-.808 1.394-2.054 1.261-.352-.039-.54.036-.618.082-.066.04-.09.075-.09.094-.007.074.169.274.653.328a.61.61 0 0 1 .316 1.082Zm0 0" style="stroke:none;fill-rule:nonzero;fill:#aa8dd8;fill-opacity:1"/><path d="M18.738 13.969c1.203-.34 2.035.195 2.235.902.199.707-.23 1.598-1.438 1.938-.469.132-.61.355-.59.43.02.07.258.187.727.058 1.207-.34 2.039.195 2.234.902.2.707-.23 1.598-1.433 1.938-.473.133-.614.355-.594.43.02.07.258.187.73.058a.61.61 0 0 1 .754.422.616.616 0 0 1-.425.754c-1.204.34-2.036-.2-2.235-.906-.2-.704.23-1.594 1.438-1.934.468-.133.613-.36.59-.43-.02-.074-.258-.191-.727-.058-1.207.34-2.04-.2-2.234-.907-.2-.703.23-1.593 1.433-1.937.473-.129.613-.356.594-.426-.024-.074-.258-.191-.73-.058a.614.614 0 0 1-.755-.422.614.614 0 0 1 .426-.754Zm0 0" style="stroke:none;fill-rule:nonzero;fill:#77b255;fill-opacity:1"/><path d="M14.055 12.32a.613.613 0 0 1-.383-1.09c.137-.105 3.312-2.601 7.805-1.96a.61.61 0 1 1-.176 1.21c-3.965-.562-6.836 1.684-6.863 1.707a.609.609 0 0 1-.383.133Zm0 0" style="stroke:none;fill-rule:nonzero;fill:#aa8dd8;fill-opacity:1"/><path d="M3.516 9.777a.61.61 0 0 1-.586-.785c.695-2.304 1.32-5.984.55-6.945-.085-.11-.218-.215-.515-.195-.574.046-.52 1.253-.52 1.265a.612.612 0 0 1-1.219.094c-.062-.844.2-2.465 1.649-2.574.645-.051 1.18.172 1.559.644 1.449 1.805-.024 7.032-.332 8.063a.614.614 0 0 1-.586.433Zm0 0" style="stroke:none;fill-rule:nonzero;fill:#77b255;fill-opacity:1"/><path d="M16.5 5.805a.917.917 0 1 1-1.834.002.917.917 0 0 1 1.834-.002Zm0 0" style="stroke:none;fill-rule:nonzero;fill:#5c913b;fill-opacity:1"/><path d="M2.445 11a1.222 1.222 0 1 1-2.444.001A1.222 1.222 0 0 1 2.445 11Zm0 0" style="stroke:none;fill-rule:nonzero;fill:#9266cc;fill-opacity:1"/><path d="M20.777 11.918a.916.916 0 1 1-1.832-.004.916.916 0 0 1 1.832.004ZM15.277 19.25a.917.917 0 1 1-1.833.002.917.917 0 0 1 1.833-.002Zm0 0" style="stroke:none;fill-rule:nonzero;fill:#5c913b;fill-opacity:1"/><path d="M18.332 2.445a1.221 1.221 0 1 1-2.441 0 1.221 1.221 0 1 1 2.441 0ZM20.777 5.195a.916.916 0 1 1-1.832-.004.916.916 0 0 1 1.832.004ZM18.945 7.64a.919.919 0 0 1-1.836 0 .917.917 0 1 1 1.836 0ZM5.5 14.36a.917.917 0 1 1-1.834.002.917.917 0 0 1 1.834-.003Zm0 0" style="stroke:none;fill-rule:nonzero;fill:#ffcc4d;fill-opacity:1"/></svg>