<svg width="887" height="178" viewBox="0 0 887 178" fill="none" xmlns="http://www.w3.org/2000/svg">
<path d="M56.475 41L97.395 65V113L56.475 137L15.555 113V65L56.475 41ZM72.319 112.556L72.935 112.476C73.387 112.304 73.815 112.152 74.087 111.716C74.995 110.4 72.659 109.868 71.823 108.408C70.987 106.952 67.539 98.952 70.151 96.712C72.763 94.472 75.587 93.552 76.667 91.452C77.135 90.508 77.619 89.552 77.743 88.484C78.379 89.012 78.875 89.504 79.731 89.532C81.999 89.676 83.947 86.9 84.959 84.272C85.499 82.656 85.935 80.944 85.831 79.368C85.555 76.328 85.883 73.04 88.311 71.02C85.915 72.228 83.643 73.78 80.931 74.176C79.435 73.72 77.931 73.312 76.343 73.376C75.567 72.364 74.519 70.468 73.155 70.248C70.835 71.08 70.767 74.668 69.787 79.532C68.2812 79.1067 66.7333 78.8478 65.171 78.76C63.011 78.62 59.491 79.296 57.019 79.224C54.543 79.152 49.675 76.976 45.623 77.444C43.995 77.644 42.355 77.924 40.843 78.608C39.919 79.028 38.583 80.292 37.911 80.48C31.151 82.372 20.143 82.292 22.395 72.072C22.571 71.288 22.619 70.58 22.275 70.404C21.835 70.184 21.595 70.644 21.339 71.152C17.399 79.704 24.395 85.208 32.347 85.232C34.847 85.04 33.643 85.204 35.963 84.76L35.903 85.088C35.8032 86.4394 36.0723 87.7926 36.6817 89.003C37.2911 90.2133 38.2179 91.2354 39.363 91.96C38.283 95.044 36.143 97.516 34.671 100.348C35.223 103.872 38.795 108.576 40.271 109.248C41.575 109.836 44.415 109.844 45.071 108.892C45.307 108.448 45.151 107.488 44.895 106.996C46.003 108.228 47.499 109.94 48.947 110.764C49.815 111.18 50.683 111.444 51.655 111.484L52.895 111.42C53.511 111.288 54.239 111.188 54.655 110.64C55.119 109.84 54.683 107.616 52.751 107.456C50.819 107.296 49.571 106.568 47.791 103.928C46.331 101.376 48.099 97.86 48.695 95.348C51.755 95.84 54.835 96.228 57.935 96.236C59.279 96.168 60.615 96.116 61.939 95.864C62.363 96.944 63.547 99.964 63.555 100.82C63.583 103.224 62.679 105.64 63.071 108.048C63.311 108.756 63.091 110.096 64.471 110.152L66.023 110.224L67.091 110.192C68.455 112.484 69.639 112.48 72.319 112.556ZM42.247 105.916L41.995 105.692C41.259 104.9 39.355 103.516 39.707 102.232C40.007 101.28 40.559 100.404 40.999 99.5L40.983 99.592C40.903 100.72 40.747 101.832 41.111 102.94C42.223 103.852 43.763 105.3 44.783 106.288C44.231 106.136 43.183 105.82 42.663 106.024L42.247 105.916Z" fill="black"/>
<path d="M210.975 41H159.975C147.549 41 137.475 51.0736 137.475 63.5V114.5C137.475 126.926 147.549 137 159.975 137H210.975C223.401 137 233.475 126.926 233.475 114.5V63.5C233.475 51.0736 223.401 41 210.975 41Z" fill="#242938"/>
<path d="M205.725 59.75H219.225L185.475 117.969L151.725 59.75H177.544L185.475 73.25L193.238 59.75H205.725Z" fill="#41B883"/>
<path d="M151.725 59.75L185.475 117.969L219.225 59.75H205.725L185.475 94.6812L165.056 59.75H151.725Z" fill="#41B883"/>
<path d="M165.056 59.75L185.475 94.85L205.725 59.75H193.238L185.475 73.25L177.544 59.75H165.056Z" fill="white"/>
<path d="M314.475 41C301.745 41 289.536 46.0571 280.534 55.0589C271.532 64.0606 266.475 76.2696 266.475 89C266.475 101.73 271.532 113.939 280.534 122.941C289.536 131.943 301.745 137 314.475 137C327.205 137 339.414 131.943 348.416 122.941C357.418 113.939 362.475 101.73 362.475 89C362.475 76.2696 357.418 64.0606 348.416 55.0589C339.414 46.0571 327.205 41 314.475 41ZM311.307 62.228C320.075 62.128 328.771 66.764 333.027 75.444C336.663 82.852 336.539 89.884 332.635 98.024C330.727 102.004 330.687 102.264 331.671 104.336C332.527 106.144 334.579 107.452 336.555 107.452C338.371 107.452 341.155 105.108 341.563 103.236C341.963 101.42 340.791 98.764 339.135 97.728C338.603 97.4002 338.079 97.0601 337.563 96.708C337.047 96.308 339.243 95.188 340.527 95.188C343.275 95.188 345.515 97.292 346.027 100.348C346.247 101.68 346.563 102.036 347.787 102.356C351.223 103.244 352.975 108.16 350.807 110.82C349.927 111.9 349.887 111.904 349.587 110.988C348.519 107.784 346.923 106.508 343.975 106.508C342.699 106.508 341.687 107.02 339.583 108.732C335.559 112.012 332.119 113.944 327.955 115.26C322.851 116.796 316.947 117.172 311.611 115.884C302.963 114.16 294.683 107.444 290.603 98.856C285.507 88.128 287.015 77 294.607 69.308C296.789 67.089 299.387 65.3216 302.253 64.1068C305.118 62.892 308.195 62.2536 311.307 62.228Z" fill="black"/>
<path d="M444.727 44.432C448.903 44.424 452.791 45.888 456.591 49.144C459.787 51.884 461.259 55.224 462.403 57.78C464.223 61.852 463.687 62.228 461.683 63.372C461.353 63.5541 461.005 63.699 460.643 63.804C461.123 69.812 464.491 70.352 465.571 72.464C466.275 73.824 466.619 75.472 463.359 75.988C460.083 76.508 461.151 79.028 456.307 79.248C452.851 79.412 450.819 78.22 449.647 76.976C449.761 80.4481 448.897 83.8824 447.155 86.888C447.995 87.304 449.835 88.112 452.375 88.576C455.899 89.216 460.995 86.488 462.951 86.488C463.563 86.488 464.203 86.4 464.911 86.388C466.407 86.36 468.219 86.676 470.791 88.876L470.927 88.576C469.423 86.516 470.079 81.036 472.887 74.436C476.131 66.82 480.099 60.3 483.311 62.04V62.024C486.211 63.592 484.751 69.688 481.511 77.304C478.723 83.848 476.003 89.06 473.179 89.476L472.863 90.44C476.199 93.088 475.531 94.352 474.627 96.52C473.579 98.996 475.083 101.22 469.739 102.132C469.16 102.231 468.567 102.196 468.003 102.032C467.611 102.96 467.295 103.68 467.295 103.68C467.295 103.68 466.775 105.108 465.383 104.608C463.955 104.088 464.331 103.056 464.331 103.056L465.707 100.556C464.851 99.632 464.399 98.588 464.519 98.212C465.051 97.036 466.339 98.088 466.211 96.788C463.735 97.052 461.387 95.612 460.867 95.484C460.347 95.36 460.603 94.184 456.431 96.788C454.775 97.82 453.255 98.856 451.711 99.836C452.323 102.972 455.939 107.9 458.671 108.26C467.279 107.868 467.279 113.62 466.635 113.74C465.335 111.268 463.251 111.784 460.507 113.352C457.763 114.92 461.027 114.652 462.199 115.56C456.451 117.992 450.807 113.412 449.211 111.956C446.939 115.568 442.519 118.128 439.459 119.496C435.683 121.188 432.859 123.428 435.683 124.84C438.035 126.016 439.335 123.02 442.735 122.488C446.119 121.968 449.131 123.272 449.395 125.232C447.971 124.448 446.919 124.448 446.919 124.448C446.919 124.448 448.095 125.232 448.219 126.528C448.347 127.832 448.099 127.176 447.311 127.176C445.351 127.176 445.103 125.48 443.391 125.748C439.083 126.14 438.831 127.956 436.483 128.228C434.131 128.476 430.215 127.188 430.747 124.18C431.267 121.188 435.307 119.088 439.099 117.52C442.875 115.952 448.627 111 447.843 106.548C447.459 104.364 446.439 103.476 445.503 103.14C442.771 104.22 439.903 104.94 436.983 105.264C428.583 106.292 425.767 102.296 425.051 100.904C419.843 104.636 412.439 106.004 409.683 110.592C410.859 104.072 414.383 101.972 422.611 98.196C430.819 94.428 432.523 86.632 432.531 86.592C432.523 86.712 432.127 93.684 427.543 98.712C429.103 101.696 431.479 103.212 436.983 102.648C443.251 102.008 452.295 96.568 458.659 93.384C463.095 91.16 465.051 95.344 468.187 95.596C472.547 95.956 468.971 100.548 468.971 100.548C468.971 100.548 472.247 100.028 472.891 98.856C473.531 97.68 472.495 96.896 473.531 95.86C474.579 94.812 474.439 93.636 472.951 92.54C471.631 91.568 470.803 90.268 466.495 88.308C462.183 86.348 458.519 90.124 453.563 91.3C449.835 92.18 446.483 90.568 445.047 89.704C441.223 93.8 436.483 94.592 436.483 94.592V94.576C441.183 91.832 444.115 86.852 445.383 82.54C446.319 79.36 445.663 75.92 445.251 74.332C439.211 74.212 434.743 68.42 434.743 68.42H434.759C434.759 68.42 442.455 73.372 448.719 71.288C454.975 69.204 453.939 57.072 454.067 57.716C454.127 58.028 455.115 60.484 455.267 63.46C456.735 63.284 462.087 62.46 460.963 59.912C457.427 51.952 451.019 46.972 439.715 46.416C441.787 57.636 432.259 54.568 417.251 62.26C402.223 69.972 398.087 82.792 399.903 97.68C401.011 106.66 406.775 116.544 417.451 122.972C419.983 122.711 422.33 121.522 424.039 119.636C427.299 115.984 425.463 110.236 430.823 108.148C432.696 107.395 434.692 106.994 436.711 106.964C438.675 106.952 439.835 107.364 439.835 107.364C439.835 107.364 430.307 108.664 429.523 114.152C428.739 119.636 427.443 122.112 425.355 123.804C424.403 124.548 423.315 125.1 422.147 125.424C428.403 128.224 435.995 129.932 444.959 129.932C473.559 129.932 484.959 107.24 486.179 101.16C487.539 94.436 491.475 92.84 491.475 100.016C491.475 113.728 470.931 133.568 445.071 133.568C419.211 133.568 404.855 119.588 398.979 108.368C393.099 97.128 394.675 80.032 403.291 69.72C411.907 59.392 423.615 57.056 432.091 54.316C440.159 51.704 439.731 46.876 439.671 46.416C438.351 46.356 437.023 46.348 435.699 46.4C438.883 45.128 441.871 44.436 444.727 44.432ZM481.923 62.4C480.491 62.424 477.163 67.64 474.471 74.376C471.651 81.456 470.835 87.632 471.711 88.12C472.199 88.388 476.383 83.308 479.203 76.24C482.027 69.16 483.419 62.936 482.119 62.432C482.055 62.4079 481.991 62.397 481.923 62.4ZM455.283 64.408C455.243 67.524 454.151 70.996 450.147 73.12C449.827 73.292 449.515 73.44 449.203 73.568C449.335 74.122 449.436 74.6829 449.507 75.248C450.587 75.852 452.195 76.608 453.955 76.9C457.091 77.416 459.315 75.316 460.227 74.548C461.135 73.78 462.515 74.36 463.155 74.484C463.795 74.628 465.099 74.236 464.191 73.844C463.267 73.452 462.231 72.084 461.447 70.396C460.615 67.064 459.447 65.636 458.835 65.076C457.843 65.564 456.519 65.192 455.635 64.596C455.515 64.536 455.395 64.476 455.283 64.408ZM480.867 65.072H480.923L480.779 65.128C480.755 65.144 480.739 65.168 480.719 65.192C480.783 65.472 480.747 65.776 480.747 66.092C480.756 66.4162 480.715 66.7398 480.627 67.052C480.651 67.112 480.627 67.212 480.627 67.288C480.551 67.384 480.611 67.464 480.591 67.544C480.711 67.66 480.887 67.796 480.807 67.952C480.767 68.052 480.647 68.092 480.531 68.128C480.475 68.408 480.395 68.716 480.335 69.032C480.335 69.112 480.335 69.228 480.319 69.304C480.259 69.504 480.199 69.676 480.139 69.892C480.099 70.068 480.139 70.404 479.947 70.44C479.867 70.64 479.827 70.796 479.731 70.992C479.691 71.008 479.651 70.972 479.611 70.992C479.592 71.235 479.552 71.48 479.491 71.716C479.491 71.796 479.475 71.932 479.475 72.028C479.375 72.164 479.435 72.264 479.395 72.38C479.535 72.54 479.711 72.696 479.611 72.928C479.555 73.088 479.395 73.128 479.259 73.204C479.139 73.576 479.023 74.028 478.907 74.436C478.887 74.556 478.867 74.692 478.827 74.812C478.731 75.064 478.611 75.32 478.535 75.612C478.455 75.852 478.475 76.28 478.223 76.32C478.103 76.572 478.043 76.768 477.907 77.024C477.847 77.064 477.811 77.004 477.751 77.024C477.691 77.104 477.671 77.22 477.615 77.3C477.575 77.34 477.515 77.34 477.475 77.396C477.395 77.516 477.419 77.688 477.339 77.868C477.256 77.9422 477.184 78.0269 477.123 78.12L477.103 78.16C477.011 78.408 476.967 78.704 476.855 78.944C476.947 78.156 477.035 77.24 477.107 76.296C477.143 75.616 477.195 74.768 477.255 73.9C477.324 72.7138 477.311 71.5243 477.215 70.34L477.339 70.088L477.595 69.596C477.651 68.992 477.699 68.572 477.715 68.636C477.76 68.8201 477.79 69.0073 477.807 69.196C477.947 68.952 478.091 68.7 478.259 68.424C478.419 68.148 478.555 67.856 478.731 67.64C478.851 67.48 479.043 67.172 479.183 66.88C479.223 66.78 479.223 66.68 479.375 66.66C479.515 66.484 479.631 66.268 479.787 66.112C479.827 66.072 479.887 66.052 479.927 66.032C479.967 65.992 479.983 65.936 480.043 65.896C480.139 65.816 480.319 65.74 480.435 65.584C480.455 65.544 480.475 65.504 480.515 65.464C480.563 65.404 480.635 65.284 480.715 65.192L480.711 65.152L480.779 65.128C480.804 65.1033 480.834 65.0842 480.867 65.072ZM476.895 70.884C476.667 73.78 476.495 76.684 476.383 79.584C476.319 79.7089 476.259 79.8356 476.203 79.964C476.007 80.432 475.715 80.98 475.519 81.528L475.459 81.844C475.379 82.06 475.263 82.272 475.203 82.488C475.083 82.824 474.931 83.408 474.615 83.724C474.599 83.764 474.519 83.804 474.479 83.844C474.439 83.9 474.459 83.98 474.399 84.056L474.331 84.1L474.799 78.452C474.823 77.412 474.931 76.392 475.079 75.468L475.067 75.34C475.127 75.008 475.167 74.752 475.263 74.38L475.303 74.26C475.615 72.724 475.959 71.68 475.959 71.68L475.831 72.912C475.879 72.8 475.931 72.688 475.991 72.576C476.047 72.456 476.143 72.36 476.203 72.224C476.223 72.164 476.243 72.064 476.263 71.988C476.447 71.608 476.671 71.252 476.895 70.884ZM474.499 77.2C474.207 79.22 473.991 81.8 474.259 84.176C474.235 84.22 474.219 84.268 474.187 84.312C474.087 84.408 473.947 84.468 473.851 84.584C473.795 84.664 473.755 84.784 473.675 84.88C473.59 84.9887 473.499 85.0928 473.403 85.192L473.051 85.704C472.961 85.86 472.824 85.9832 472.659 86.056C472.579 86.096 472.459 86.076 472.363 86.096C472.307 86.016 472.363 85.896 472.363 85.8C472.363 85.76 472.323 85.704 472.323 85.664C472.323 85.544 472.307 85.328 472.323 85.212C472.323 85.092 472.423 84.996 472.463 84.82C472.483 84.684 472.463 84.528 472.463 84.372C472.463 84.312 472.483 84.232 472.483 84.132C472.483 84.016 472.483 83.96 472.499 83.8C472.513 83.6239 472.508 83.4468 472.483 83.272C472.563 82.86 472.599 82.528 472.715 82.04C472.755 81.824 472.855 81.432 472.955 81.176C473.031 80.924 473.127 80.668 473.207 80.392C473.287 80.12 473.383 79.844 473.479 79.572C473.539 79.396 473.639 79.236 473.719 79.04C473.755 78.944 473.755 78.828 473.795 78.708C473.875 78.472 473.971 78.22 474.087 78.004L474.419 77.356L474.499 77.2ZM449.427 101.224C448.907 101.52 448.375 101.808 447.827 102.084C448.959 102.896 451.447 105.196 450.427 109.184C450.382 109.362 450.331 109.538 450.275 109.712C452.375 112.628 455.367 114.16 456.903 114.384C458.583 114.636 457.859 113.728 457.607 112.82C457.343 111.908 459.175 111.644 460.207 111C461.247 110.344 460.727 109.308 457.343 109.824C454.295 110.304 450.011 103.644 449.427 101.224Z" fill="black"/>
<path d="M614.394 54.434C605.33 54.0604 596.381 56.5813 588.845 61.6317C581.309 66.6822 575.575 74.0001 572.475 82.526C566.154 65.066 549.114 53.642 530.556 54.434C530.255 61.6851 531.804 68.8937 535.058 75.3807C538.312 81.8677 543.164 87.4198 549.156 91.514C552.231 93.6271 554.744 96.4583 556.478 99.7622C558.211 103.066 559.113 106.743 559.104 110.474V123.602H585.852V110.48C585.843 106.749 586.744 103.073 588.477 99.7687C590.21 96.4648 592.723 93.6335 595.797 91.52C601.79 87.427 606.643 81.8752 609.897 75.3879C613.151 68.9005 614.7 61.6914 614.397 54.44L614.394 54.434Z" fill="#FD366E"/>
<path fill-rule="evenodd" clip-rule="evenodd" d="M703.057 73.4H711.532V82.025H715.807C717.757 82.025 719.782 81.65 721.657 81.05C722.557 80.75 723.607 80.3 724.507 79.775C723.307 78.2 722.707 76.25 722.557 74.3C722.332 71.675 722.857 68.225 724.657 66.2L725.557 65.15L726.607 65.975C729.307 68.15 731.482 71.075 731.932 74.525C735.157 73.55 738.907 73.775 741.757 75.425L742.882 76.1L742.282 77.3C739.882 81.95 734.857 83.45 729.982 83.15C722.632 101.375 706.732 110 687.382 110C677.407 110 668.257 106.25 663.007 97.4L662.932 97.25L662.182 95.675C660.382 91.775 659.857 87.5 660.232 83.225L660.382 81.95H667.582V73.4H676.057V65H692.932V56.525H703.057V73.4Z" fill="#3A4D54"/>
<path fill-rule="evenodd" clip-rule="evenodd" d="M690.25 118.625C690.4 118.625 690.625 118.625 690.775 118.7C690.625 118.775 690.475 119 690.475 119.225C690.475 119.525 690.775 119.825 691.075 119.825C691.3 119.825 691.525 119.675 691.6 119.525C691.675 119.675 691.675 119.9 691.675 120.05C691.675 120.875 691 121.475 690.25 121.475C689.425 121.475 688.825 120.8 688.825 120.05C688.825 119.3 689.425 118.625 690.25 118.625ZM654.475 113.9H748.525C746.5 113.375 742.075 112.7 742.75 110C739 114.275 730.075 113 727.75 110.9C725.2 114.575 710.5 113.15 709.525 110.3C706.375 114.05 696.55 114.05 693.4 110.3C692.35 113.15 677.65 114.575 675.175 110.9C672.925 113 663.925 114.275 660.175 110C661 112.625 656.5 113.375 654.475 113.9Z" fill="#3A4D54"/>
<path d="M736.318 81.5637C736.918 76.6339 733.617 72.7904 731.516 70.9522C729.189 73.9602 728.814 81.9814 732.491 85.3236C730.39 87.3289 726.113 89.2507 721.61 89.2507H667.432C666.982 94.4311 667.807 99.1937 669.683 103.288L670.284 104.541C670.659 105.293 671.109 105.962 671.559 106.714C673.811 106.881 675.837 106.964 677.713 106.881C681.39 106.797 684.391 106.296 686.717 105.46C687.092 105.293 687.393 105.544 687.543 105.878C687.693 106.296 687.468 106.63 687.168 106.797C686.867 106.881 686.567 107.048 686.192 107.131C684.391 107.716 682.44 108.05 679.964 108.218H679.514C678.538 108.301 677.487 108.301 676.362 108.301C675.161 108.301 674.036 108.301 672.685 108.218C677.187 113.899 684.241 117.242 693.096 117.242C711.855 117.242 727.764 107.967 734.742 87.2454C739.77 87.8303 744.572 86.4098 746.749 81.6472C743.372 79.3912 738.869 80.1432 736.318 81.5637Z" fill="#00AADA"/>
<path d="M736.318 81.5637C736.918 76.6339 733.617 72.7904 731.516 70.9522C729.189 73.9602 728.814 81.9814 732.491 85.3236C730.39 87.3289 726.113 89.2507 721.61 89.2507H670.584C670.359 97.1884 672.985 103.204 677.713 106.797C681.389 106.714 684.391 106.212 686.717 105.377C687.092 105.21 687.393 105.46 687.543 105.795C687.693 106.212 687.468 106.547 687.168 106.714C686.867 106.797 686.567 106.964 686.192 107.048C684.391 107.633 682.29 108.05 679.814 108.218L679.739 108.134C686.117 111.81 695.347 111.727 706.002 107.215C717.858 102.118 728.964 92.4258 736.693 81.3965C736.543 81.4801 736.393 81.4801 736.318 81.5637Z" fill="#28B8EB"/>
<path d="M667.507 95.5173C667.807 98.2746 668.558 100.865 669.683 103.288L670.284 104.541C670.659 105.293 671.109 105.962 671.559 106.714C673.811 106.881 675.837 106.964 677.713 106.881C681.39 106.797 684.391 106.296 686.717 105.46C687.092 105.293 687.393 105.544 687.543 105.878C687.693 106.296 687.468 106.63 687.168 106.797C686.867 106.881 686.567 107.048 686.192 107.131C684.391 107.716 682.29 108.134 679.814 108.301H679.514C678.538 108.385 677.487 108.385 676.437 108.385C675.236 108.385 674.036 108.385 672.76 108.301C677.262 113.983 684.391 117.325 693.246 117.325C709.304 117.325 723.261 110.557 731.366 95.6008H667.507V95.5173Z" fill="#028BB8"/>
<path d="M671.109 95.5173C672.085 100.363 674.336 104.207 677.713 106.797C681.39 106.714 684.391 106.212 686.717 105.377C687.092 105.21 687.393 105.46 687.543 105.794C687.693 106.212 687.468 106.546 687.168 106.714C686.867 106.797 686.567 106.964 686.192 107.048C684.391 107.633 682.29 108.05 679.739 108.218C686.117 111.894 695.347 111.81 705.927 107.298C712.306 104.541 718.534 100.447 724.087 95.5173H671.109Z" fill="#019BC6"/>
<path fill-rule="evenodd" clip-rule="evenodd" d="M674.786 79.5583H682.14V87.7467H674.786V79.5583ZM675.386 80.2268H675.987V86.9947H675.386V80.2268ZM676.437 80.2268H677.037V86.9947H676.437V80.2268ZM677.563 80.2268H678.163V86.9947H677.563V80.2268ZM678.688 80.2268H679.288V86.9947H678.688V80.2268ZM679.814 80.2268H680.414V86.9947H679.814V80.2268ZM680.939 80.2268H681.54V86.9947H680.939V80.2268ZM683.19 70.2002H690.544V78.3886H683.19V70.2002ZM683.866 70.8686H684.466V77.6366H683.866V70.8686ZM684.916 70.8686H685.517V77.6366H684.916V70.8686ZM686.042 70.8686H686.642V77.6366H686.042V70.8686ZM687.168 70.8686H687.768V77.6366H687.168V70.8686ZM688.218 70.8686H688.818V77.6366H688.218V70.8686ZM689.344 70.8686H689.944V77.6366H689.344V70.8686Z" fill="#00ACD3"/>
<path fill-rule="evenodd" clip-rule="evenodd" d="M683.19 79.5583H690.544V87.7467H683.19V79.5583ZM683.866 80.2268H684.466V86.9947H683.866V80.2268ZM684.916 80.2268H685.517V86.9947H684.916V80.2268ZM686.042 80.2268H686.642V86.9947H686.042V80.2268ZM687.168 80.2268H687.768V86.9947H687.168V80.2268ZM688.218 80.2268H688.818V86.9947H688.218V80.2268ZM689.344 80.2268H689.944V86.9947H689.344V80.2268Z" fill="#23C2EE"/>
<path fill-rule="evenodd" clip-rule="evenodd" d="M691.67 79.5583H699.024V87.7467H691.67V79.5583ZM692.27 80.2268H692.87V86.9947H692.27V80.2268ZM693.396 80.2268H693.996V86.9947H693.396V80.2268ZM694.521 80.2268H695.122V86.9947H694.521V80.2268ZM695.572 80.2268H696.172V86.9947H695.572V80.2268ZM696.697 80.2268H697.298V86.9947H696.697V80.2268ZM697.823 80.2268H698.423V86.9947H697.823V80.2268Z" fill="#00ACD3"/>
<path fill-rule="evenodd" clip-rule="evenodd" d="M691.67 70.2002H699.024V78.3886H691.67V70.2002ZM692.27 70.8686H692.87V77.6366H692.27V70.8686ZM693.396 70.8686H693.996V77.6366H693.396V70.8686ZM694.521 70.8686H695.122V77.6366H694.521V70.8686ZM695.572 70.8686H696.172V77.6366H695.572V70.8686ZM696.697 70.8686H697.298V77.6366H696.697V70.8686ZM697.823 70.8686H698.423V77.6366H697.823V70.8686ZM700.149 79.5583H707.503V87.7467H700.149V79.5583ZM700.75 80.2268H701.35V86.9947H700.75V80.2268ZM701.875 80.2268H702.475V86.9947H701.875V80.2268ZM702.926 80.2268H703.526V86.9947H702.926V80.2268ZM704.051 80.2268H704.652V86.9947H704.051V80.2268ZM705.177 80.2268H705.777V86.9947H705.177V80.2268ZM706.302 80.2268H706.903V86.9947H706.302V80.2268Z" fill="#23C2EE"/>
<path fill-rule="evenodd" clip-rule="evenodd" d="M700.149 70.2002H707.503V78.3886H700.149V70.2002ZM700.75 70.8686H701.35V77.6366H700.75V70.8686ZM701.875 70.8686H702.476V77.6366H701.875V70.8686ZM702.926 70.8686H703.526V77.6366H702.926V70.8686ZM704.051 70.8686H704.652V77.6366H704.051V70.8686ZM705.177 70.8686H705.777V77.6366H705.177V70.8686ZM706.302 70.8686H706.903V77.6366H706.302V70.8686Z" fill="#00ACD3"/>
<path fill-rule="evenodd" clip-rule="evenodd" d="M700.149 60.7585H707.503V68.9469H700.149V60.7585ZM700.75 61.427H701.35V68.1949H700.75V61.427ZM701.875 61.427H702.476V68.1949H701.875V61.427ZM702.926 61.427H703.526V68.1949H702.926V61.427ZM704.051 61.427H704.652V68.1949H704.051V61.427ZM705.177 61.427H705.777V68.1949H705.177V61.427ZM706.302 61.427H706.903V68.1949H706.302V61.427Z" fill="#23C2EE"/>
<path fill-rule="evenodd" clip-rule="evenodd" d="M708.629 79.5583H715.983V87.7467H708.629V79.5583ZM709.229 80.2268H709.829V86.9947H709.229V80.2268ZM710.28 80.2268H710.88V86.9947H710.28V80.2268ZM711.405 80.2268H712.005V86.9947H711.405V80.2268ZM712.531 80.2268H713.131V86.9947H712.531V80.2268ZM713.656 80.2268H714.257V86.9947H713.656V80.2268ZM714.782 80.2268H715.382V86.9947H714.782V80.2268Z" fill="#00ACD3"/>
<path fill-rule="evenodd" clip-rule="evenodd" d="M690.094 100.948C691.22 100.948 692.12 101.951 692.12 103.204C692.12 104.458 691.22 105.46 690.094 105.46C688.968 105.46 688.068 104.458 688.068 103.204C688.068 101.951 688.968 100.948 690.094 100.948Z" fill="#D4EEF1"/>
<path d="M695.497 117.242C690.469 114.568 687.768 110.975 686.192 107.048C684.316 107.633 682.065 108.051 679.514 108.218C678.538 108.301 677.487 108.301 676.437 108.301C675.161 108.301 673.886 108.301 672.535 108.218C677.037 113.231 682.74 117.158 693.171 117.242H695.497Z" fill="#BFDBE0"/>
<path d="M688.068 110.641C687.393 109.554 686.717 108.301 686.192 107.048C684.316 107.633 682.065 108.051 679.514 108.218C681.239 109.22 683.791 110.223 688.068 110.641Z" fill="#D4EEF1"/>
<g clip-path="url(#clip0_3_2)">
<path d="M856.025 41H805.025C792.599 41 782.525 51.0736 782.525 63.5V114.5C782.525 126.926 792.599 137 805.025 137H856.025C868.451 137 878.525 126.926 878.525 114.5V63.5C878.525 51.0736 868.451 41 856.025 41Z" fill="#242938"/>
<path fill-rule="evenodd" clip-rule="evenodd" d="M813.65 82.25C815.9 73.25 821.525 68.75 830.525 68.75C844.025 68.75 845.712 78.875 852.462 80.5625C856.963 81.6879 860.9 80.0004 864.275 75.5C862.025 84.4996 856.4 89 847.4 89C833.9 89 832.212 78.875 825.462 77.1875C820.962 76.0625 817.025 77.75 813.65 82.25ZM796.775 102.5C799.025 93.5004 804.65 89 813.65 89C827.15 89 828.837 99.125 835.587 100.812C840.088 101.938 844.025 100.25 847.4 95.75C845.15 104.75 839.525 109.25 830.525 109.25C817.025 109.25 815.337 99.125 808.587 97.4375C804.087 96.3121 800.15 97.9996 796.775 102.5Z" fill="url(#paint0_linear_3_2)"/>
</g>
<defs>
<linearGradient id="paint0_linear_3_2" x1="814.962" y1="68.75" x2="843.837" y2="110.562" gradientUnits="userSpaceOnUse">
<stop stop-color="#32B1C1"/>
<stop offset="1" stop-color="#14C6B7"/>
</linearGradient>
<clipPath id="clip0_3_2">
<rect width="96" height="96" fill="white" transform="translate(782.525 41)"/>
</clipPath>
</defs>
</svg>
